<?xml version="1.0" encoding="UTF-8" standalone="no"?>
<!-- Created with Inkscape (http://www.inkscape.org/) -->

<svg
   sodipodi:docname="color_thall.svg"
   inkscape:version="1.2.2 (b0a8486, 2022-12-01)"
   inkscape:export-ydpi="96"
   inkscape:export-xdpi="96"
   inkscape:export-filename="color_thall.png"
   id="svg3702"
   version="1.1"
   viewBox="0 0 1083.7333 571.49998"
   height="2160"
   width="4096"
   xml:space="preserve"
   xmlns:inkscape="http://www.inkscape.org/namespaces/inkscape"
   xmlns:sodipodi="http://sodipodi.sourceforge.net/DTD/sodipodi-0.dtd"
   xmlns="http://www.w3.org/2000/svg"
   xmlns:svg="http://www.w3.org/2000/svg"><sodipodi:namedview
     id="namedview3704"
     pagecolor="#ffffff"
     bordercolor="#000000"
     borderopacity="0.25"
     inkscape:showpageshadow="2"
     inkscape:pageopacity="0.0"
     inkscape:pagecheckerboard="0"
     inkscape:deskcolor="#d1d1d1"
     inkscape:document-units="px"
     showgrid="false"
     inkscape:lockguides="true"
     inkscape:zoom="0.25"
     inkscape:cx="1290"
     inkscape:cy="1188"
     inkscape:window-width="1342"
     inkscape:window-height="744"
     inkscape:window-x="0"
     inkscape:window-y="0"
     inkscape:window-maximized="1"
     inkscape:current-layer="layer1"
     showguides="false" /><defs
     id="defs3699" /><g
     inkscape:label="Layer 1"
     inkscape:groupmode="layer"
     id="layer1"><rect
       style="fill:#1e2326;stroke:none;stroke-width:0.538176"
       id="rect3875"
       width="1083.7333"
       height="571.5"
       x="-4.5833335e-06"
       y="-2.4999999e-06" /><g
       id="g5395"
       transform="matrix(0.87488158,0,0,0.87488158,255.8546,105.74556)"><path
         d="m 435.15239,458.12012 -52.097,30.079 -17.117,-9.883 52.098,-30.078 z m -22.662,-13.084 -52.097,30.079 -17.117,-9.883 52.098,-30.078 z m -91.897,7.1 c 0.04,-0.918 1.571,-2.25 4.593,-3.995 -3.012,0.588 -6.388,0.522 -10.128,-0.197 -3.636,-0.715 -7.227,-2.096 -10.772,-4.143 -2.548,-1.471 -4.526,-3.111 -5.934,-4.921 -1.359,-1.837 -1.92,-3.657 -1.681,-5.457 0.342,-1.797 1.641,-3.346 3.895,-4.648 3.886,-2.243 8.228,-3.087 13.028,-2.532 4.799,0.555 10.518,2.306 17.158,5.253 3.644,1.605 6.438,2.775 8.38,3.509 1.99,0.705 3.533,1.126 4.63,1.26 1.096,0.135 2.004,-0.005 2.724,-0.421 0.959,-0.554 1.208,-1.242 0.746,-2.062 -0.414,-0.848 -1.341,-1.688 -2.781,-2.52 -3.158,-1.823 -6.726,-2.193 -10.705,-1.112 l -14.957,-9.881 c 4.979,-1.723 7.111,-2.876 16.689,-1.001 9.578,1.876 28.852,12.816 31.109,18.21 2.257,5.395 -0.035,6.545 -4.496,9.12 l -18.781,10.844 c -1.967,1.135 -3.398,2.026 -4.295,2.671 -0.793,0.65 -1.229,1.285 -1.306,1.905 z m 16.25,-10.725 c -1.277,-0.35 -3.782,-1.27 -7.515,-2.761 -4.28,-1.751 -7.595,-1.947 -9.946,-0.59 -1.103,0.637 -1.575,1.389 -1.416,2.257 0.159,0.867 0.904,1.685 2.233,2.452 1.717,0.991 3.876,1.6 6.474,1.827 2.703,0.231 5.133,-0.277 7.292,-1.523 z m -45.206,-44.131 c 3.326,-0.129 6.645,0.098 9.956,0.68 3.415,0.587 6.84,1.872 10.274,3.855 4.653,2.686 7.11,5.489 7.37,8.409 0.316,2.952 -1.901,5.799 -6.65,8.541 l -24.897,14.374 -17.117,-9.882 21.659,-12.505 c 2.111,-1.218 3.124,-2.379 3.038,-3.481 0.018,-1.097 -0.887,-2.174 -2.715,-3.229 -1.994,-1.151 -4.2,-1.733 -6.618,-1.744 -2.37,-0.039 -4.755,0.634 -7.153,2.019 l -20.508,11.84 -17.117,-9.882 52.098,-30.078 17.116,9.882 -19.069,11.009 z m -44.949,0.065 -7.493,5.849 c -3.848,-1.369 -8.401,-3.047 -12.032,-4.999 -2.753,-1.481 -5.593,-3.082 -7.22,-5 -1.232,-1.453 -2.163,-3.132 -1.653,-4.61 0.511,-1.478 2.294,-3.052 5.269,-4.769 l 18.709,-10.801 -4.216,-2.435 8.922,-5.151 4.216,2.434 6.355,-3.669 23.179,4.767 -14.036,7.85 7.047,4.068 -8.923,5.152 -7.047,-4.069 -15.354,8.929 c -3.933,2.27 -5.569,3.204 1.712,5.626 1.072,0.357 2.565,0.828 2.565,0.828 z"
         style="fill:#d699b6;fill-opacity:1;stroke:#d3c6aa;stroke-width:1.05833px;stroke-opacity:1"
         id="path5193" /><path
         d="m 435.15239,451.44012 -52.097,30.078 -17.117,-9.882 52.098,-30.078 z m -22.662,-13.084 -52.097,30.078 -17.117,-9.882 52.098,-30.078 z m -91.897,7.1 c 0.04,-0.919 1.571,-2.25 4.593,-3.995 -3.012,0.587 -6.388,0.522 -10.128,-0.197 -3.636,-0.715 -7.227,-2.096 -10.772,-4.143 -2.548,-1.471 -4.526,-3.111 -5.934,-4.921 -1.359,-1.838 -1.92,-3.657 -1.681,-5.458 0.342,-1.796 1.641,-3.345 3.895,-4.647 3.886,-2.244 8.228,-3.088 13.028,-2.533 4.799,0.556 10.518,2.307 17.158,5.254 3.644,1.605 6.438,2.775 8.38,3.508 1.99,0.706 3.533,1.126 4.63,1.261 1.096,0.134 2.004,-0.005 2.724,-0.422 0.959,-0.553 1.208,-1.241 0.746,-2.061 -0.414,-0.849 -1.341,-1.689 -2.781,-2.52 -3.158,-1.823 -6.726,-2.194 -10.705,-1.112 l -14.957,-9.881 c 4.979,-1.724 7.111,-2.877 16.689,-1.001 9.578,1.876 28.852,12.815 31.109,18.21 2.257,5.395 -0.035,6.544 -4.496,9.12 l -18.781,10.843 c -1.967,1.136 -3.398,2.026 -4.295,2.672 -0.793,0.65 -1.229,1.285 -1.306,1.905 z m 16.25,-10.725 c -1.277,-0.35 -3.782,-1.27 -7.515,-2.761 -4.28,-1.751 -7.595,-1.948 -9.946,-0.59 -1.103,0.637 -1.575,1.389 -1.416,2.256 0.159,0.868 0.904,1.685 2.233,2.453 1.717,0.991 3.876,1.6 6.474,1.827 2.703,0.23 5.133,-0.277 7.292,-1.524 z m -45.206,-44.131 c 3.326,-0.129 6.645,0.097 9.956,0.68 3.415,0.587 6.84,1.872 10.274,3.854 4.653,2.687 7.11,5.49 7.37,8.41 0.316,2.952 -1.901,5.799 -6.65,8.541 l -24.897,14.374 -17.117,-9.882 21.659,-12.505 c 2.111,-1.219 3.124,-2.379 3.038,-3.481 0.018,-1.097 -0.887,-2.174 -2.715,-3.229 -1.994,-1.152 -4.2,-1.733 -6.618,-1.744 -2.37,-0.039 -4.755,0.634 -7.153,2.019 l -20.508,11.84 -17.117,-9.882 52.098,-30.078 17.116,9.882 -19.069,11.009 z m -44.949,0.065 -7.493,5.849 c -3.848,-1.37 -8.401,-3.047 -12.032,-5 -2.753,-1.48 -5.593,-3.081 -7.22,-4.999 -1.232,-1.453 -2.163,-3.132 -1.653,-4.61 0.511,-1.478 2.294,-3.052 5.269,-4.769 l 18.709,-10.802 -4.216,-2.434 8.922,-5.151 4.216,2.434 6.355,-3.669 23.179,4.767 -14.036,7.849 7.047,4.069 -8.923,5.151 -7.047,-4.068 -15.354,8.928 c -3.933,2.271 -5.569,3.204 1.712,5.627 1.072,0.357 2.565,0.828 2.565,0.828 z"
         style="fill:#e67e80;fill-opacity:1;stroke:#d3c6aa;stroke-width:1.05833px;stroke-opacity:1"
         id="path5195" /><path
         d="m 435.15239,444.76012 -52.097,30.078 -17.117,-9.882 52.098,-30.078 z m -22.662,-13.084 -52.097,30.078 -17.117,-9.882 52.098,-30.078 z m -91.897,7.1 c 0.04,-0.919 1.571,-2.251 4.593,-3.995 -3.012,0.587 -6.388,0.521 -10.128,-0.198 -3.636,-0.714 -7.227,-2.095 -10.772,-4.142 -2.548,-1.471 -4.526,-3.112 -5.934,-4.921 -1.359,-1.838 -1.92,-3.657 -1.681,-5.458 0.342,-1.796 1.641,-3.346 3.895,-4.647 3.886,-2.244 8.228,-3.088 13.028,-2.533 4.799,0.555 10.518,2.306 17.158,5.253 3.644,1.606 6.438,2.776 8.38,3.509 1.99,0.706 3.533,1.126 4.63,1.261 1.096,0.134 2.004,-0.005 2.724,-0.422 0.959,-0.554 1.208,-1.241 0.746,-2.062 -0.414,-0.848 -1.341,-1.688 -2.781,-2.519 -3.158,-1.823 -6.726,-2.194 -10.705,-1.112 l -14.957,-9.882 c 4.979,-1.723 7.111,-2.876 16.689,-1 9.578,1.876 28.852,12.815 31.109,18.21 2.257,5.395 -0.035,6.544 -4.496,9.12 l -18.781,10.843 c -1.967,1.136 -3.398,2.026 -4.295,2.672 -0.793,0.65 -1.229,1.285 -1.306,1.905 z m 16.25,-10.726 c -1.277,-0.35 -3.782,-1.27 -7.515,-2.76 -4.28,-1.751 -7.595,-1.948 -9.946,-0.591 -1.103,0.637 -1.575,1.39 -1.416,2.257 0.159,0.868 0.904,1.685 2.233,2.453 1.717,0.991 3.876,1.6 6.474,1.826 2.703,0.231 5.133,-0.277 7.292,-1.523 z m -45.206,-44.13 c 3.326,-0.13 6.645,0.097 9.956,0.68 3.415,0.587 6.84,1.871 10.274,3.854 4.653,2.687 7.11,5.49 7.37,8.41 0.316,2.952 -1.901,5.799 -6.65,8.54 l -24.897,14.375 -17.117,-9.882 21.659,-12.505 c 2.111,-1.219 3.124,-2.379 3.038,-3.481 0.018,-1.098 -0.887,-2.174 -2.715,-3.229 -1.994,-1.152 -4.2,-1.733 -6.618,-1.744 -2.37,-0.039 -4.755,0.634 -7.153,2.019 l -20.508,11.84 -17.117,-9.882 52.098,-30.079 17.116,9.883 -19.069,11.009 z m -44.949,0.065 -7.493,5.848 c -3.848,-1.369 -8.401,-3.046 -12.032,-4.999 -2.753,-1.48 -5.593,-3.081 -7.22,-4.999 -1.232,-1.454 -2.163,-3.132 -1.653,-4.611 0.511,-1.478 2.294,-3.051 5.269,-4.768 l 18.709,-10.802 -4.216,-2.434 8.922,-5.152 4.216,2.435 6.355,-3.669 23.179,4.767 -14.036,7.849 7.047,4.069 -8.923,5.151 -7.047,-4.068 -15.354,8.928 c -3.933,2.271 -5.569,3.204 1.712,5.626 1.072,0.357 2.565,0.829 2.565,0.829 z"
         style="fill:#e69875;fill-opacity:1;stroke:#d3c6aa;stroke-width:1.05833px;stroke-opacity:1"
         id="path5197" /><path
         d="m 435.15239,438.07912 -52.097,30.079 -17.117,-9.882 52.098,-30.079 z m -22.662,-13.084 -52.097,30.079 -17.117,-9.882 52.098,-30.079 z m -91.897,7.1 c 0.04,-0.918 1.571,-2.25 4.593,-3.995 -3.012,0.588 -6.388,0.522 -10.128,-0.197 -3.636,-0.715 -7.227,-2.095 -10.772,-4.142 -2.548,-1.471 -4.526,-3.112 -5.934,-4.922 -1.359,-1.837 -1.92,-3.656 -1.681,-5.457 0.342,-1.797 1.641,-3.346 3.895,-4.648 3.886,-2.243 8.228,-3.087 13.028,-2.532 4.799,0.555 10.518,2.306 17.158,5.253 3.644,1.606 6.438,2.775 8.38,3.509 1.99,0.706 3.533,1.126 4.63,1.26 1.096,0.135 2.004,-0.005 2.724,-0.421 0.959,-0.554 1.208,-1.241 0.746,-2.062 -0.414,-0.848 -1.341,-1.688 -2.781,-2.52 -3.158,-1.823 -6.726,-2.193 -10.705,-1.111 l -14.957,-9.882 c 4.979,-1.723 7.111,-2.876 16.689,-1 9.578,1.876 28.852,12.815 31.109,18.21 2.257,5.395 -0.035,6.544 -4.496,9.12 l -18.781,10.843 c -1.967,1.135 -3.398,2.026 -4.295,2.672 -0.793,0.649 -1.229,1.284 -1.306,1.905 z m 16.25,-10.725 c -1.277,-0.35 -3.782,-1.27 -7.515,-2.761 -4.28,-1.75 -7.595,-1.947 -9.946,-0.59 -1.103,0.637 -1.575,1.389 -1.416,2.257 0.159,0.867 0.904,1.685 2.233,2.452 1.717,0.992 3.876,1.601 6.474,1.827 2.703,0.231 5.133,-0.277 7.292,-1.523 z m -45.206,-44.13 c 3.326,-0.13 6.645,0.097 9.956,0.679 3.415,0.587 6.84,1.872 10.274,3.855 4.653,2.686 7.11,5.49 7.37,8.409 0.316,2.952 -1.901,5.799 -6.65,8.541 l -24.897,14.375 -17.117,-9.882 21.659,-12.505 c 2.111,-1.219 3.124,-2.379 3.038,-3.481 0.018,-1.098 -0.887,-2.174 -2.715,-3.23 -1.994,-1.151 -4.2,-1.732 -6.618,-1.743 -2.37,-0.039 -4.755,0.634 -7.153,2.018 l -20.508,11.841 -17.117,-9.882 52.098,-30.079 17.116,9.882 -19.069,11.01 z m -44.949,0.064 -7.493,5.849 c -3.848,-1.369 -8.401,-3.047 -12.032,-4.999 -2.753,-1.481 -5.593,-3.081 -7.22,-4.999 -1.232,-1.454 -2.163,-3.133 -1.653,-4.611 0.511,-1.478 2.294,-3.051 5.269,-4.768 l 18.709,-10.802 -4.216,-2.434 8.922,-5.152 4.216,2.434 6.355,-3.668 23.179,4.766 -14.036,7.85 7.047,4.068 -8.923,5.152 -7.047,-4.069 -15.354,8.929 c -3.933,2.271 -5.569,3.204 1.712,5.626 1.072,0.357 2.565,0.828 2.565,0.828 z"
         style="fill:#dbbc7f;fill-opacity:1;stroke:#d3c6aa;stroke-width:1.05833px;stroke-opacity:1"
         id="path5199" /><path
         d="m 435.15239,431.39912 -52.097,30.079 -17.117,-9.882 52.098,-30.079 z m -22.662,-13.084 -52.097,30.079 -17.117,-9.883 52.098,-30.078 z m -91.897,7.1 c 0.04,-0.918 1.571,-2.25 4.593,-3.995 -3.012,0.588 -6.388,0.522 -10.128,-0.197 -3.636,-0.715 -7.227,-2.096 -10.772,-4.142 -2.548,-1.472 -4.526,-3.112 -5.934,-4.922 -1.359,-1.837 -1.92,-3.656 -1.681,-5.457 0.342,-1.797 1.641,-3.346 3.895,-4.648 3.886,-2.243 8.228,-3.087 13.028,-2.532 4.799,0.555 10.518,2.306 17.158,5.253 3.644,1.605 6.438,2.775 8.38,3.509 1.99,0.706 3.533,1.126 4.63,1.26 1.096,0.135 2.004,-0.005 2.724,-0.421 0.959,-0.554 1.208,-1.241 0.746,-2.062 -0.414,-0.848 -1.341,-1.688 -2.781,-2.52 -3.158,-1.823 -6.726,-2.193 -10.705,-1.111 l -14.957,-9.882 c 4.979,-1.723 7.111,-2.876 16.689,-1 9.578,1.875 28.852,12.815 31.109,18.21 2.257,5.394 -0.035,6.544 -4.496,9.119 l -18.781,10.844 c -1.967,1.135 -3.398,2.026 -4.295,2.671 -0.793,0.65 -1.229,1.285 -1.306,1.905 z m 16.25,-10.725 c -1.277,-0.35 -3.782,-1.27 -7.515,-2.761 -4.28,-1.75 -7.595,-1.947 -9.946,-0.59 -1.103,0.637 -1.575,1.389 -1.416,2.257 0.159,0.867 0.904,1.685 2.233,2.452 1.717,0.992 3.876,1.601 6.474,1.827 2.703,0.231 5.133,-0.277 7.292,-1.523 z m -45.206,-44.131 c 3.326,-0.129 6.645,0.098 9.956,0.68 3.415,0.587 6.84,1.872 10.274,3.855 4.653,2.686 7.11,5.489 7.37,8.409 0.316,2.952 -1.901,5.799 -6.65,8.541 l -24.897,14.375 -17.117,-9.883 21.659,-12.505 c 2.111,-1.218 3.124,-2.379 3.038,-3.48 0.018,-1.098 -0.887,-2.175 -2.715,-3.23 -1.994,-1.151 -4.2,-1.733 -6.618,-1.744 -2.37,-0.039 -4.755,0.634 -7.153,2.019 l -20.508,11.841 -17.117,-9.883 52.098,-30.078 17.116,9.882 -19.069,11.009 z m -44.949,0.065 -7.493,5.849 c -3.848,-1.369 -8.401,-3.047 -12.032,-4.999 -2.753,-1.481 -5.593,-3.082 -7.22,-5 -1.232,-1.453 -2.163,-3.132 -1.653,-4.61 0.511,-1.478 2.294,-3.051 5.269,-4.769 l 18.709,-10.801 -4.216,-2.435 8.922,-5.151 4.216,2.434 6.355,-3.668 23.179,4.766 -14.036,7.85 7.047,4.068 -8.923,5.152 -7.047,-4.069 -15.354,8.929 c -3.933,2.27 -5.569,3.204 1.712,5.626 1.072,0.357 2.565,0.828 2.565,0.828 z"
         style="fill:#a7c080;fill-opacity:1;stroke:#d3c6aa;stroke-width:1.05833px;stroke-opacity:1"
         id="path5201" /><path
         d="m 435.15239,424.71912 -52.097,30.078 -17.117,-9.882 52.098,-30.078 z m -22.662,-13.084 -52.097,30.078 -17.117,-9.882 52.098,-30.078 z m -91.897,7.1 c 0.04,-0.919 1.571,-2.25 4.593,-3.995 -3.012,0.587 -6.388,0.522 -10.128,-0.197 -3.636,-0.715 -7.227,-2.096 -10.772,-4.143 -2.548,-1.471 -4.526,-3.111 -5.934,-4.921 -1.359,-1.837 -1.92,-3.657 -1.681,-5.458 0.342,-1.796 1.641,-3.345 3.895,-4.647 3.886,-2.243 8.228,-3.088 13.028,-2.532 4.799,0.555 10.518,2.306 17.158,5.253 3.644,1.605 6.438,2.775 8.38,3.508 1.99,0.706 3.533,1.127 4.63,1.261 1.096,0.135 2.004,-0.005 2.724,-0.421 0.959,-0.554 1.208,-1.242 0.746,-2.062 -0.414,-0.849 -1.341,-1.689 -2.781,-2.52 -3.158,-1.823 -6.726,-2.194 -10.705,-1.112 l -14.957,-9.881 c 4.979,-1.724 7.111,-2.876 16.689,-1.001 9.578,1.876 28.852,12.815 31.109,18.21 2.257,5.395 -0.035,6.544 -4.496,9.12 l -18.781,10.843 c -1.967,1.136 -3.398,2.027 -4.295,2.672 -0.793,0.65 -1.229,1.285 -1.306,1.905 z m 16.25,-10.725 c -1.277,-0.35 -3.782,-1.27 -7.515,-2.761 -4.28,-1.751 -7.595,-1.947 -9.946,-0.59 -1.103,0.637 -1.575,1.389 -1.416,2.256 0.159,0.868 0.904,1.685 2.233,2.453 1.717,0.991 3.876,1.6 6.474,1.827 2.703,0.231 5.133,-0.277 7.292,-1.524 z m -45.206,-44.131 c 3.326,-0.129 6.645,0.097 9.956,0.68 3.415,0.587 6.84,1.872 10.274,3.855 4.653,2.686 7.11,5.489 7.37,8.409 0.316,2.952 -1.901,5.799 -6.65,8.541 l -24.897,14.374 -17.117,-9.882 21.659,-12.505 c 2.111,-1.219 3.124,-2.379 3.038,-3.481 0.018,-1.097 -0.887,-2.174 -2.715,-3.229 -1.994,-1.151 -4.2,-1.733 -6.618,-1.744 -2.37,-0.039 -4.755,0.634 -7.153,2.019 l -20.508,11.84 -17.117,-9.882 52.098,-30.078 17.116,9.882 -19.069,11.009 z m -44.949,0.065 -7.493,5.849 c -3.848,-1.369 -8.401,-3.047 -12.032,-5 -2.753,-1.48 -5.593,-3.081 -7.22,-4.999 -1.232,-1.453 -2.163,-3.132 -1.653,-4.61 0.511,-1.478 2.294,-3.052 5.269,-4.769 l 18.709,-10.802 -4.216,-2.434 8.922,-5.151 4.216,2.434 6.355,-3.669 23.179,4.767 -14.036,7.849 7.047,4.069 -8.923,5.152 -7.047,-4.069 -15.354,8.929 c -3.933,2.27 -5.569,3.204 1.712,5.626 1.072,0.357 2.565,0.828 2.565,0.828 z"
         style="fill:#83c092;fill-opacity:1;stroke:#d3c6aa;stroke-width:1.05833px;stroke-opacity:1"
         id="path5203" /><path
         d="m 435.15239,418.03912 -52.097,30.078 -17.117,-9.882 52.098,-30.078 z m -22.662,-13.084 -52.097,30.078 -17.117,-9.882 52.098,-30.078 z m -91.897,7.1 c 0.04,-0.919 1.571,-2.25 4.593,-3.995 -3.012,0.587 -6.388,0.521 -10.128,-0.198 -3.636,-0.714 -7.227,-2.095 -10.772,-4.142 -2.548,-1.471 -4.526,-3.111 -5.934,-4.921 -1.359,-1.838 -1.92,-3.657 -1.681,-5.458 0.342,-1.796 1.641,-3.346 3.895,-4.647 3.886,-2.244 8.228,-3.088 13.028,-2.533 4.799,0.556 10.518,2.307 17.158,5.253 3.644,1.606 6.438,2.776 8.38,3.509 1.99,0.706 3.533,1.126 4.63,1.261 1.096,0.134 2.004,-0.005 2.724,-0.422 0.959,-0.554 1.208,-1.241 0.746,-2.061 -0.414,-0.849 -1.341,-1.689 -2.781,-2.52 -3.158,-1.823 -6.726,-2.194 -10.705,-1.112 l -14.957,-9.882 c 4.979,-1.723 7.111,-2.876 16.689,-1 9.578,1.876 28.852,12.815 31.109,18.21 2.257,5.395 -0.035,6.544 -4.496,9.12 l -18.781,10.843 c -1.967,1.136 -3.398,2.026 -4.295,2.672 -0.793,0.65 -1.229,1.285 -1.306,1.905 z m 16.25,-10.726 c -1.277,-0.349 -3.782,-1.27 -7.515,-2.76 -4.28,-1.751 -7.595,-1.948 -9.946,-0.591 -1.103,0.637 -1.575,1.39 -1.416,2.257 0.159,0.868 0.904,1.685 2.233,2.453 1.717,0.991 3.876,1.6 6.474,1.827 2.703,0.23 5.133,-0.277 7.292,-1.524 z m -45.206,-44.13 c 3.326,-0.129 6.645,0.097 9.956,0.68 3.415,0.587 6.84,1.871 10.274,3.854 4.653,2.687 7.11,5.49 7.37,8.41 0.316,2.952 -1.901,5.799 -6.65,8.541 l -24.897,14.374 -17.117,-9.882 21.659,-12.505 c 2.111,-1.219 3.124,-2.379 3.038,-3.481 0.018,-1.098 -0.887,-2.174 -2.715,-3.229 -1.994,-1.152 -4.2,-1.733 -6.618,-1.744 -2.37,-0.039 -4.755,0.634 -7.153,2.019 l -20.508,11.84 -17.117,-9.882 52.098,-30.079 17.116,9.883 -19.069,11.009 z m -44.949,0.065 -7.493,5.848 c -3.848,-1.369 -8.401,-3.046 -12.032,-4.999 -2.753,-1.48 -5.593,-3.081 -7.22,-4.999 -1.232,-1.453 -2.163,-3.132 -1.653,-4.61 0.511,-1.478 2.294,-3.052 5.269,-4.769 l 18.709,-10.802 -4.216,-2.434 8.922,-5.152 4.216,2.435 6.355,-3.669 23.179,4.767 -14.036,7.849 7.047,4.069 -8.923,5.151 -7.047,-4.068 -15.354,8.928 c -3.933,2.271 -5.569,3.204 1.712,5.627 1.072,0.356 2.565,0.828 2.565,0.828 z"
         style="fill:#7fbbb3;fill-opacity:1;stroke:#d3c6aa;stroke-width:1.05833px;stroke-opacity:1"
         id="path5205" /><path
         d="m 435.15239,411.35912 -52.097,30.078 -17.117,-9.882 52.098,-30.079 z m -22.662,-13.084 -52.097,30.078 -17.117,-9.882 52.098,-30.079 z m -91.897,7.1 c 0.04,-0.919 1.571,-2.251 4.593,-3.996 -3.012,0.588 -6.388,0.522 -10.128,-0.197 -3.636,-0.715 -7.227,-2.095 -10.772,-4.142 -2.548,-1.471 -4.526,-3.112 -5.934,-4.921 -1.359,-1.838 -1.92,-3.657 -1.681,-5.458 0.342,-1.797 1.641,-3.346 3.895,-4.647 3.886,-2.244 8.228,-3.088 13.028,-2.533 4.799,0.555 10.518,2.306 17.158,5.253 3.644,1.606 6.438,2.775 8.38,3.509 1.99,0.706 3.533,1.126 4.63,1.261 1.096,0.134 2.004,-0.005 2.724,-0.422 0.959,-0.554 1.208,-1.241 0.746,-2.062 -0.414,-0.848 -1.341,-1.688 -2.781,-2.519 -3.158,-1.823 -6.726,-2.194 -10.705,-1.112 l -14.957,-9.882 c 4.979,-1.723 7.111,-2.876 16.689,-1 9.578,1.876 28.852,12.815 31.109,18.21 2.257,5.395 -0.035,6.544 -4.496,9.12 l -18.781,10.843 c -1.967,1.136 -3.398,2.026 -4.295,2.672 -0.793,0.65 -1.229,1.285 -1.306,1.905 z m 16.25,-10.726 c -1.277,-0.35 -3.782,-1.27 -7.515,-2.76 -4.28,-1.751 -7.595,-1.948 -9.946,-0.591 -1.103,0.637 -1.575,1.39 -1.416,2.257 0.159,0.867 0.904,1.685 2.233,2.452 1.717,0.992 3.876,1.601 6.474,1.827 2.703,0.231 5.133,-0.277 7.292,-1.523 z m -45.206,-44.13 c 3.326,-0.13 6.645,0.097 9.956,0.68 3.415,0.586 6.84,1.871 10.274,3.854 4.653,2.686 7.11,5.49 7.37,8.41 0.316,2.951 -1.901,5.798 -6.65,8.54 l -24.897,14.375 -17.117,-9.882 21.659,-12.505 c 2.111,-1.219 3.124,-2.379 3.038,-3.481 0.018,-1.098 -0.887,-2.174 -2.715,-3.23 -1.994,-1.151 -4.2,-1.732 -6.618,-1.743 -2.37,-0.039 -4.755,0.634 -7.153,2.019 l -20.508,11.84 -17.117,-9.882 52.098,-30.079 17.116,9.882 -19.069,11.01 z m -44.949,0.065 -7.493,5.848 c -3.848,-1.369 -8.401,-3.046 -12.032,-4.999 -2.753,-1.481 -5.593,-3.081 -7.22,-4.999 -1.232,-1.454 -2.163,-3.133 -1.653,-4.611 0.511,-1.478 2.294,-3.051 5.269,-4.768 l 18.709,-10.802 -4.216,-2.434 8.922,-5.152 4.216,2.434 6.355,-3.668 23.179,4.767 -14.036,7.849 7.047,4.069 -8.923,5.151 -7.047,-4.068 -15.354,8.928 c -3.933,2.271 -5.569,3.204 1.712,5.626 1.072,0.357 2.565,0.829 2.565,0.829 z"
         style="fill:#384b55;fill-opacity:1;stroke:#d3c6aa;stroke-width:1.05833px;stroke-opacity:1"
         id="path5207" /><path
         d="m 435.15239,404.67812 -52.097,30.079 -17.117,-9.882 52.098,-30.079 z m -22.662,-13.084 -52.097,30.079 -17.117,-9.882 52.098,-30.079 z m -91.897,7.1 c 0.04,-0.918 1.571,-2.25 4.593,-3.995 -3.012,0.588 -6.388,0.522 -10.128,-0.197 -3.636,-0.715 -7.227,-2.096 -10.772,-4.142 -2.548,-1.471 -4.526,-3.112 -5.934,-4.922 -1.359,-1.837 -1.92,-3.656 -1.681,-5.457 0.342,-1.797 1.641,-3.346 3.895,-4.648 3.886,-2.243 8.228,-3.087 13.028,-2.532 4.799,0.555 10.518,2.306 17.158,5.253 3.644,1.606 6.438,2.775 8.38,3.509 1.99,0.706 3.533,1.126 4.63,1.26 1.096,0.135 2.004,-0.005 2.724,-0.421 0.959,-0.554 1.208,-1.241 0.746,-2.062 -0.414,-0.848 -1.341,-1.688 -2.781,-2.52 -3.158,-1.823 -6.726,-2.193 -10.705,-1.111 l -14.957,-9.882 c 4.979,-1.723 7.111,-2.876 16.689,-1 9.578,1.875 28.852,12.815 31.109,18.21 2.257,5.395 -0.035,6.544 -4.496,9.12 l -18.781,10.843 c -1.967,1.135 -3.398,2.026 -4.295,2.671 -0.793,0.65 -1.229,1.285 -1.306,1.906 z m 16.25,-10.725 c -1.277,-0.35 -3.782,-1.27 -7.515,-2.761 -4.28,-1.75 -7.595,-1.947 -9.946,-0.59 -1.103,0.637 -1.575,1.389 -1.416,2.257 0.159,0.867 0.904,1.685 2.233,2.452 1.717,0.992 3.876,1.601 6.474,1.827 2.703,0.231 5.133,-0.277 7.292,-1.523 z m -45.206,-44.131 c 3.326,-0.129 6.645,0.098 9.956,0.68 3.415,0.587 6.84,1.872 10.274,3.855 4.653,2.686 7.11,5.489 7.37,8.409 0.316,2.952 -1.901,5.799 -6.65,8.541 l -24.897,14.375 -17.117,-9.883 21.659,-12.505 c 2.111,-1.218 3.124,-2.378 3.038,-3.48 0.018,-1.098 -0.887,-2.174 -2.715,-3.23 -1.994,-1.151 -4.2,-1.732 -6.618,-1.744 -2.37,-0.039 -4.755,0.634 -7.153,2.019 l -20.508,11.841 -17.117,-9.883 52.098,-30.078 17.116,9.882 -19.069,11.01 z m -44.949,0.065 -7.493,5.849 c -3.848,-1.369 -8.401,-3.047 -12.032,-4.999 -2.753,-1.481 -5.593,-3.082 -7.22,-5 -1.232,-1.453 -2.163,-3.132 -1.653,-4.61 0.511,-1.478 2.294,-3.051 5.269,-4.769 l 18.709,-10.801 -4.216,-2.434 8.922,-5.152 4.216,2.434 6.355,-3.668 23.179,4.766 -14.036,7.85 7.047,4.068 -8.923,5.152 -7.047,-4.069 -15.354,8.929 c -3.933,2.27 -5.569,3.204 1.712,5.626 1.072,0.357 2.565,0.828 2.565,0.828 z"
         style="fill:#4f5b58;fill-opacity:1;stroke:#d3c6aa;stroke-width:1.05833px;stroke-opacity:1"
         id="path5209" /><path
         d="m 435.15239,397.99812 -52.097,30.079 -17.117,-9.883 52.098,-30.078 z m -22.662,-13.084 -52.097,30.079 -17.117,-9.883 52.098,-30.078 z m -91.897,7.1 c 0.04,-0.918 1.571,-2.25 4.593,-3.995 -3.012,0.588 -6.388,0.522 -10.128,-0.197 -3.636,-0.715 -7.227,-2.096 -10.772,-4.143 -2.548,-1.471 -4.526,-3.111 -5.934,-4.921 -1.359,-1.837 -1.92,-3.657 -1.681,-5.457 0.342,-1.797 1.641,-3.346 3.895,-4.648 3.886,-2.243 8.228,-3.087 13.028,-2.532 4.799,0.555 10.518,2.306 17.158,5.253 3.644,1.605 6.438,2.775 8.38,3.509 1.99,0.705 3.533,1.126 4.63,1.26 1.096,0.135 2.004,-0.005 2.724,-0.421 0.959,-0.554 1.208,-1.242 0.746,-2.062 -0.414,-0.849 -1.341,-1.688 -2.781,-2.52 -3.158,-1.823 -6.726,-2.193 -10.705,-1.112 l -14.957,-9.881 c 4.979,-1.723 7.111,-2.876 16.689,-1.001 9.578,1.876 28.852,12.816 31.109,18.21 2.257,5.395 -0.035,6.545 -4.496,9.12 l -18.781,10.844 c -1.967,1.135 -3.398,2.026 -4.295,2.671 -0.793,0.65 -1.229,1.285 -1.306,1.905 z m 16.25,-10.725 c -1.277,-0.35 -3.782,-1.27 -7.515,-2.761 -4.28,-1.751 -7.595,-1.947 -9.946,-0.59 -1.103,0.637 -1.575,1.389 -1.416,2.257 0.159,0.867 0.904,1.684 2.233,2.452 1.717,0.991 3.876,1.6 6.474,1.827 2.703,0.231 5.133,-0.277 7.292,-1.523 z m -45.206,-44.131 c 3.326,-0.129 6.645,0.098 9.956,0.68 3.415,0.587 6.84,1.872 10.274,3.855 4.653,2.686 7.11,5.489 7.37,8.409 0.316,2.952 -1.901,5.799 -6.65,8.541 l -24.897,14.374 -17.117,-9.882 21.659,-12.505 c 2.111,-1.218 3.124,-2.379 3.038,-3.481 0.018,-1.097 -0.887,-2.174 -2.715,-3.229 -1.994,-1.151 -4.2,-1.733 -6.618,-1.744 -2.37,-0.039 -4.755,0.634 -7.153,2.019 l -20.508,11.84 -17.117,-9.882 52.098,-30.078 17.116,9.882 -19.069,11.009 z m -44.949,0.065 -7.493,5.849 c -3.848,-1.369 -8.401,-3.047 -12.032,-4.999 -2.753,-1.481 -5.593,-3.082 -7.22,-5 -1.232,-1.453 -2.163,-3.132 -1.653,-4.61 0.511,-1.478 2.294,-3.052 5.269,-4.769 l 18.709,-10.801 -4.216,-2.435 8.922,-5.151 4.216,2.434 6.355,-3.669 23.179,4.767 -14.036,7.85 7.047,4.068 -8.923,5.152 -7.047,-4.069 -15.354,8.929 c -3.933,2.27 -5.569,3.204 1.712,5.626 1.072,0.357 2.565,0.828 2.565,0.828 z"
         style="fill:#3c4841;fill-opacity:1;stroke:#d3c6aa;stroke-width:1.05833px;stroke-opacity:1"
         id="path5211" /><path
         d="m 435.15239,391.31812 -52.097,30.078 -17.117,-9.882 52.098,-30.078 z m -22.662,-13.084 -52.097,30.078 -17.117,-9.882 52.098,-30.078 z m -91.897,7.1 c 0.04,-0.919 1.571,-2.25 4.593,-3.995 -3.012,0.587 -6.388,0.522 -10.128,-0.197 -3.636,-0.715 -7.227,-2.096 -10.772,-4.143 -2.548,-1.471 -4.526,-3.111 -5.934,-4.921 -1.359,-1.838 -1.92,-3.657 -1.681,-5.458 0.342,-1.796 1.641,-3.345 3.895,-4.647 3.886,-2.244 8.228,-3.088 13.028,-2.533 4.799,0.556 10.518,2.307 17.158,5.253 3.644,1.606 6.438,2.776 8.38,3.509 1.99,0.706 3.533,1.126 4.63,1.261 1.096,0.134 2.004,-0.005 2.724,-0.422 0.959,-0.553 1.208,-1.241 0.746,-2.061 -0.414,-0.849 -1.341,-1.689 -2.781,-2.52 -3.158,-1.823 -6.726,-2.194 -10.705,-1.112 l -14.957,-9.882 c 4.979,-1.723 7.111,-2.876 16.689,-1 9.578,1.876 28.852,12.815 31.109,18.21 2.257,5.395 -0.035,6.544 -4.496,9.12 l -18.781,10.843 c -1.967,1.136 -3.398,2.026 -4.295,2.672 -0.793,0.65 -1.229,1.285 -1.306,1.905 z m 16.25,-10.726 c -1.277,-0.349 -3.782,-1.27 -7.515,-2.76 -4.28,-1.751 -7.595,-1.948 -9.946,-0.59 -1.103,0.637 -1.575,1.389 -1.416,2.256 0.159,0.868 0.904,1.685 2.233,2.453 1.717,0.991 3.876,1.6 6.474,1.827 2.703,0.23 5.133,-0.277 7.292,-1.524 z m -45.206,-44.13 c 3.326,-0.129 6.645,0.097 9.956,0.68 3.415,0.587 6.84,1.872 10.274,3.854 4.653,2.687 7.11,5.49 7.37,8.41 0.316,2.952 -1.901,5.799 -6.65,8.541 l -24.897,14.374 -17.117,-9.882 21.659,-12.505 c 2.111,-1.219 3.124,-2.379 3.038,-3.481 0.018,-1.097 -0.887,-2.174 -2.715,-3.229 -1.994,-1.152 -4.2,-1.733 -6.618,-1.744 -2.37,-0.039 -4.755,0.634 -7.153,2.019 l -20.508,11.84 -17.117,-9.882 52.098,-30.078 17.116,9.882 -19.069,11.009 z m -44.949,0.065 -7.493,5.849 c -3.848,-1.37 -8.401,-3.047 -12.032,-5 -2.753,-1.48 -5.593,-3.081 -7.22,-4.999 -1.232,-1.453 -2.163,-3.132 -1.653,-4.61 0.511,-1.478 2.294,-3.052 5.269,-4.769 l 18.709,-10.802 -4.216,-2.434 8.922,-5.151 4.216,2.434 6.355,-3.669 23.179,4.767 -14.036,7.849 7.047,4.069 -8.923,5.151 -7.047,-4.068 -15.354,8.928 c -3.933,2.271 -5.569,3.204 1.712,5.627 1.072,0.357 2.565,0.828 2.565,0.828 z"
         style="fill:#45443c;fill-opacity:1;stroke:#d3c6aa;stroke-width:1.05833px;stroke-opacity:1"
         id="path5213" /><path
         d="m 435.15239,391.31812 -52.097,30.078 -17.117,-9.882 52.098,-30.078 z m -22.662,-13.084 -52.097,30.078 -17.117,-9.882 52.098,-30.078 z m -91.897,7.1 c 0.04,-0.919 1.571,-2.25 4.593,-3.995 -3.012,0.587 -6.388,0.522 -10.128,-0.197 -3.636,-0.715 -7.227,-2.096 -10.772,-4.143 -2.548,-1.471 -4.526,-3.111 -5.934,-4.921 -1.359,-1.837 -1.92,-3.657 -1.681,-5.458 0.342,-1.796 1.641,-3.345 3.895,-4.647 3.886,-2.243 8.228,-3.088 13.028,-2.532 4.799,0.555 10.518,2.306 17.158,5.253 3.644,1.605 6.438,2.775 8.38,3.508 1.99,0.706 3.533,1.126 4.63,1.261 1.096,0.135 2.004,-0.005 2.724,-0.421 0.959,-0.554 1.208,-1.242 0.746,-2.062 -0.414,-0.849 -1.341,-1.689 -2.781,-2.52 -3.158,-1.823 -6.726,-2.194 -10.705,-1.112 l -14.957,-9.881 c 4.979,-1.724 7.111,-2.876 16.689,-1.001 9.578,1.876 28.852,12.815 31.109,18.21 2.257,5.395 -0.035,6.544 -4.496,9.12 l -18.781,10.843 c -1.967,1.136 -3.398,2.027 -4.295,2.672 -0.793,0.65 -1.229,1.285 -1.306,1.905 z m 16.25,-10.725 c -1.277,-0.35 -3.782,-1.27 -7.515,-2.761 -4.28,-1.751 -7.595,-1.947 -9.946,-0.59 -1.103,0.637 -1.575,1.389 -1.416,2.256 0.159,0.868 0.904,1.685 2.233,2.453 1.717,0.991 3.876,1.6 6.474,1.827 2.703,0.231 5.133,-0.277 7.292,-1.524 z m -45.206,-44.131 c 3.326,-0.129 6.645,0.097 9.956,0.68 3.415,0.587 6.84,1.872 10.274,3.854 4.653,2.687 7.11,5.49 7.37,8.41 0.316,2.952 -1.901,5.799 -6.65,8.541 l -24.897,14.374 -17.117,-9.882 21.659,-12.505 c 2.111,-1.219 3.124,-2.379 3.038,-3.481 0.018,-1.097 -0.887,-2.174 -2.715,-3.229 -1.994,-1.152 -4.2,-1.733 -6.618,-1.744 -2.37,-0.039 -4.755,0.634 -7.153,2.019 l -20.508,11.84 -17.117,-9.882 52.098,-30.078 17.116,9.882 -19.069,11.009 z m -44.949,0.065 -7.493,5.849 c -3.848,-1.369 -8.401,-3.047 -12.032,-5 -2.753,-1.48 -5.593,-3.081 -7.22,-4.999 -1.232,-1.453 -2.163,-3.132 -1.653,-4.61 0.511,-1.478 2.294,-3.052 5.269,-4.769 l 18.709,-10.802 -4.216,-2.434 8.922,-5.151 4.216,2.434 6.355,-3.669 23.179,4.767 -14.036,7.849 7.047,4.069 -8.923,5.151 -7.047,-4.068 -15.354,8.929 c -3.933,2.27 -5.569,3.204 1.712,5.626 1.072,0.357 2.565,0.828 2.565,0.828 z"
         style="fill:#45443c;fill-opacity:1;stroke:#d3c6aa;stroke-width:1.05833px;stroke-opacity:1"
         id="path5362" /><path
         d="m 435.15239,383.8892 -52.097,30.078 -17.117,-9.882 52.098,-30.078 z m -22.662,-13.084 -52.097,30.078 -17.117,-9.882 52.098,-30.078 z m -91.897,7.1 c 0.04,-0.919 1.571,-2.25 4.593,-3.995 -3.012,0.587 -6.388,0.522 -10.128,-0.197 -3.636,-0.715 -7.227,-2.096 -10.772,-4.143 -2.548,-1.471 -4.526,-3.111 -5.934,-4.921 -1.359,-1.837 -1.92,-3.657 -1.681,-5.458 0.342,-1.796 1.641,-3.345 3.895,-4.647 3.886,-2.243 8.228,-3.088 13.028,-2.532 4.799,0.555 10.518,2.306 17.158,5.253 3.644,1.605 6.438,2.775 8.38,3.508 1.99,0.706 3.533,1.126 4.63,1.261 1.096,0.135 2.004,-0.005 2.724,-0.421 0.959,-0.554 1.208,-1.242 0.746,-2.062 -0.414,-0.849 -1.341,-1.689 -2.781,-2.52 -3.158,-1.823 -6.726,-2.194 -10.705,-1.112 l -14.957,-9.881 c 4.979,-1.724 7.111,-2.876 16.689,-1.001 9.578,1.876 28.852,12.815 31.109,18.21 2.257,5.395 -0.035,6.544 -4.496,9.12 l -18.781,10.843 c -1.967,1.136 -3.398,2.027 -4.295,2.672 -0.793,0.65 -1.229,1.285 -1.306,1.905 z m 16.25,-10.725 c -1.277,-0.35 -3.782,-1.27 -7.515,-2.761 -4.28,-1.751 -7.595,-1.947 -9.946,-0.59 -1.103,0.637 -1.575,1.389 -1.416,2.256 0.159,0.868 0.904,1.685 2.233,2.453 1.717,0.991 3.876,1.6 6.474,1.827 2.703,0.231 5.133,-0.277 7.292,-1.524 z m -45.206,-44.131 c 3.326,-0.129 6.645,0.097 9.956,0.68 3.415,0.587 6.84,1.872 10.274,3.854 4.653,2.687 7.11,5.49 7.37,8.41 0.316,2.952 -1.901,5.799 -6.65,8.541 l -24.897,14.374 -17.117,-9.882 21.659,-12.505 c 2.111,-1.219 3.124,-2.379 3.038,-3.481 0.018,-1.097 -0.887,-2.174 -2.715,-3.229 -1.994,-1.152 -4.2,-1.733 -6.618,-1.744 -2.37,-0.039 -4.755,0.634 -7.153,2.019 l -20.508,11.84 -17.117,-9.882 52.098,-30.078 17.116,9.882 -19.069,11.009 z m -44.949,0.065 -7.493,5.849 c -3.848,-1.369 -8.401,-3.047 -12.032,-5 -2.753,-1.48 -5.593,-3.081 -7.22,-4.999 -1.232,-1.453 -2.163,-3.132 -1.653,-4.61 0.511,-1.478 2.294,-3.052 5.269,-4.769 l 18.709,-10.802 -4.216,-2.434 8.922,-5.151 4.216,2.434 6.355,-3.669 23.179,4.767 -14.036,7.849 7.047,4.069 -8.923,5.151 -7.047,-4.068 -15.354,8.929 c -3.933,2.27 -5.569,3.204 1.712,5.626 1.072,0.357 2.565,0.828 2.565,0.828 z"
         style="fill:#493b40;fill-opacity:1;stroke:#d3c6aa;stroke-width:1.05833px;stroke-opacity:1"
         id="path5364" /><path
         d="m 435.15239,375.4932 -52.097,30.078 -17.117,-9.882 52.098,-30.078 z m -22.662,-13.084 -52.097,30.078 -17.117,-9.882 52.098,-30.078 z m -91.897,7.1 c 0.04,-0.919 1.571,-2.25 4.593,-3.995 -3.012,0.587 -6.388,0.522 -10.128,-0.197 -3.636,-0.715 -7.227,-2.096 -10.772,-4.143 -2.548,-1.471 -4.526,-3.111 -5.934,-4.921 -1.359,-1.837 -1.92,-3.657 -1.681,-5.458 0.342,-1.796 1.641,-3.345 3.895,-4.647 3.886,-2.243 8.228,-3.088 13.028,-2.532 4.799,0.555 10.518,2.306 17.158,5.253 3.644,1.605 6.438,2.775 8.38,3.508 1.99,0.706 3.533,1.126 4.63,1.261 1.096,0.135 2.004,-0.005 2.724,-0.421 0.959,-0.554 1.208,-1.242 0.746,-2.062 -0.414,-0.849 -1.341,-1.689 -2.781,-2.52 -3.158,-1.823 -6.726,-2.194 -10.705,-1.112 l -14.957,-9.881 c 4.979,-1.724 7.111,-2.876 16.689,-1.001 9.578,1.876 28.852,12.815 31.109,18.21 2.257,5.395 -0.035,6.544 -4.496,9.12 l -18.781,10.843 c -1.967,1.136 -3.398,2.027 -4.295,2.672 -0.793,0.65 -1.229,1.285 -1.306,1.905 z m 16.25,-10.725 c -1.277,-0.35 -3.782,-1.27 -7.515,-2.761 -4.28,-1.751 -7.595,-1.947 -9.946,-0.59 -1.103,0.637 -1.575,1.389 -1.416,2.256 0.159,0.868 0.904,1.685 2.233,2.453 1.717,0.991 3.876,1.6 6.474,1.827 2.703,0.231 5.133,-0.277 7.292,-1.524 z m -45.206,-44.131 c 3.326,-0.129 6.645,0.097 9.956,0.68 3.415,0.587 6.84,1.872 10.274,3.854 4.653,2.687 7.11,5.49 7.37,8.41 0.316,2.952 -1.901,5.799 -6.65,8.541 l -24.897,14.374 -17.117,-9.882 21.659,-12.505 c 2.111,-1.219 3.124,-2.379 3.038,-3.481 0.018,-1.097 -0.887,-2.174 -2.715,-3.229 -1.994,-1.152 -4.2,-1.733 -6.618,-1.744 -2.37,-0.039 -4.755,0.634 -7.153,2.019 l -20.508,11.84 -17.117,-9.882 52.098,-30.078 17.116,9.882 -19.069,11.009 z m -44.949,0.065 -7.493,5.849 c -3.848,-1.369 -8.401,-3.047 -12.032,-5 -2.753,-1.48 -5.593,-3.081 -7.22,-4.999 -1.232,-1.453 -2.163,-3.132 -1.653,-4.61 0.511,-1.478 2.294,-3.052 5.269,-4.769 l 18.709,-10.802 -4.216,-2.434 8.922,-5.151 4.216,2.434 6.355,-3.669 23.179,4.767 -14.036,7.849 7.047,4.069 -8.923,5.151 -7.047,-4.068 -15.354,8.929 c -3.933,2.27 -5.569,3.204 1.712,5.626 1.072,0.357 2.565,0.828 2.565,0.828 z"
         style="fill:#4c3743;fill-opacity:1;stroke:#d3c6aa;stroke-width:1.05833px;stroke-opacity:1"
         id="path5366" /><path
         d="m 435.15239,367.7202 -52.097,30.078 -17.117,-9.882 52.098,-30.078 z m -22.662,-13.084 -52.097,30.078 -17.117,-9.882 52.098,-30.079 z m -91.897,7.1 c 0.04,-0.919 1.571,-2.251 4.593,-3.995 -3.012,0.587 -6.388,0.521 -10.128,-0.198 -3.636,-0.714 -7.227,-2.095 -10.772,-4.142 -2.548,-1.471 -4.526,-3.112 -5.934,-4.921 -1.359,-1.838 -1.92,-3.657 -1.681,-5.458 0.342,-1.796 1.641,-3.346 3.895,-4.647 3.886,-2.244 8.228,-3.088 13.028,-2.533 4.799,0.555 10.518,2.306 17.158,5.253 3.644,1.606 6.438,2.776 8.38,3.509 1.99,0.706 3.533,1.126 4.63,1.261 1.096,0.134 2.004,-0.005 2.724,-0.422 0.959,-0.554 1.208,-1.241 0.746,-2.062 -0.414,-0.848 -1.341,-1.688 -2.781,-2.519 -3.158,-1.823 -6.726,-2.194 -10.705,-1.112 l -14.957,-9.882 c 4.979,-1.723 7.111,-2.876 16.689,-1 9.578,1.876 28.852,12.815 31.109,18.21 2.257,5.395 -0.035,6.544 -4.496,9.12 l -18.781,10.843 c -1.967,1.136 -3.398,2.026 -4.295,2.672 -0.793,0.65 -1.229,1.285 -1.306,1.905 z m 16.25,-10.726 c -1.277,-0.35 -3.782,-1.27 -7.515,-2.76 -4.28,-1.751 -7.595,-1.948 -9.946,-0.591 -1.103,0.637 -1.575,1.39 -1.416,2.257 0.159,0.868 0.904,1.685 2.233,2.453 1.717,0.991 3.876,1.6 6.474,1.826 2.703,0.231 5.133,-0.277 7.292,-1.523 z m -45.206,-44.13 c 3.326,-0.13 6.645,0.097 9.956,0.68 3.415,0.586 6.84,1.871 10.274,3.854 4.653,2.687 7.11,5.49 7.37,8.41 0.316,2.952 -1.901,5.799 -6.65,8.54 l -24.897,14.375 -17.117,-9.882 21.659,-12.505 c 2.111,-1.219 3.124,-2.379 3.038,-3.481 0.018,-1.098 -0.887,-2.174 -2.715,-3.23 -1.994,-1.151 -4.2,-1.732 -6.618,-1.743 -2.37,-0.039 -4.755,0.634 -7.153,2.019 l -20.508,11.84 -17.117,-9.882 52.098,-30.079 17.116,9.883 -19.069,11.009 z m -44.949,0.065 -7.493,5.848 c -3.848,-1.369 -8.401,-3.046 -12.032,-4.999 -2.753,-1.48 -5.593,-3.081 -7.22,-4.999 -1.232,-1.454 -2.163,-3.132 -1.653,-4.611 0.511,-1.478 2.294,-3.051 5.269,-4.768 l 18.709,-10.802 -4.216,-2.434 8.922,-5.152 4.216,2.435 6.355,-3.669 23.179,4.767 -14.036,7.849 7.047,4.069 -8.923,5.151 -7.047,-4.068 -15.354,8.928 c -3.933,2.271 -5.569,3.204 1.712,5.626 1.072,0.357 2.565,0.829 2.565,0.829 z"
         style="fill:#493b40;fill-opacity:1;stroke:#d3c6aa;stroke-width:1.05833px;stroke-opacity:1"
         id="path5215" /><path
         d="m 435.15239,361.0392 -52.097,30.079 -17.117,-9.882 52.098,-30.079 z m -22.662,-13.084 -52.097,30.079 -17.117,-9.882 52.098,-30.079 z m -91.897,7.1 c 0.04,-0.918 1.571,-2.25 4.593,-3.995 -3.012,0.588 -6.388,0.522 -10.128,-0.197 -3.636,-0.715 -7.227,-2.095 -10.772,-4.142 -2.548,-1.471 -4.526,-3.112 -5.934,-4.922 -1.359,-1.837 -1.92,-3.656 -1.681,-5.457 0.342,-1.797 1.641,-3.346 3.895,-4.648 3.886,-2.243 8.228,-3.087 13.028,-2.532 4.799,0.555 10.518,2.306 17.158,5.253 3.644,1.606 6.438,2.775 8.38,3.509 1.99,0.706 3.533,1.126 4.63,1.26 1.096,0.135 2.004,-0.005 2.724,-0.421 0.959,-0.554 1.208,-1.241 0.746,-2.062 -0.414,-0.848 -1.341,-1.688 -2.781,-2.52 -3.158,-1.823 -6.726,-2.193 -10.705,-1.111 l -14.957,-9.882 c 4.979,-1.723 7.111,-2.876 16.689,-1 9.578,1.876 28.852,12.815 31.109,18.21 2.257,5.395 -0.035,6.544 -4.496,9.12 l -18.781,10.843 c -1.967,1.135 -3.398,2.026 -4.295,2.672 -0.793,0.649 -1.229,1.284 -1.306,1.905 z m 16.25,-10.725 c -1.277,-0.35 -3.782,-1.27 -7.515,-2.761 -4.28,-1.75 -7.595,-1.947 -9.946,-0.59 -1.103,0.637 -1.575,1.389 -1.416,2.257 0.159,0.867 0.904,1.685 2.233,2.452 1.717,0.992 3.876,1.601 6.474,1.827 2.703,0.231 5.133,-0.277 7.292,-1.523 z m -45.206,-44.13 c 3.326,-0.13 6.645,0.097 9.956,0.679 3.415,0.587 6.84,1.872 10.274,3.855 4.653,2.686 7.11,5.49 7.37,8.409 0.316,2.952 -1.901,5.799 -6.65,8.541 l -24.897,14.375 -17.117,-9.882 21.659,-12.505 c 2.111,-1.219 3.124,-2.379 3.038,-3.481 0.018,-1.098 -0.887,-2.174 -2.715,-3.23 -1.994,-1.151 -4.2,-1.732 -6.618,-1.743 -2.37,-0.039 -4.755,0.634 -7.153,2.018 l -20.508,11.841 -17.117,-9.882 52.098,-30.079 17.116,9.882 -19.069,11.01 z m -44.949,0.064 -7.493,5.849 c -3.848,-1.369 -8.401,-3.047 -12.032,-4.999 -2.753,-1.481 -5.593,-3.081 -7.22,-4.999 -1.232,-1.454 -2.163,-3.133 -1.653,-4.611 0.511,-1.478 2.294,-3.051 5.269,-4.768 l 18.709,-10.802 -4.216,-2.434 8.922,-5.152 4.216,2.434 6.355,-3.668 23.179,4.766 -14.036,7.85 7.047,4.068 -8.923,5.152 -7.047,-4.069 -15.354,8.929 c -3.933,2.271 -5.569,3.204 1.712,5.626 1.072,0.357 2.565,0.828 2.565,0.828 z"
         style="fill:#45443c;fill-opacity:1;stroke:#d3c6aa;stroke-width:1.05833px;stroke-opacity:1"
         id="path5217" /><path
         d="m 435.15239,354.3592 -52.097,30.079 -17.117,-9.883 52.098,-30.078 z m -22.662,-13.084 -52.097,30.079 -17.117,-9.883 52.098,-30.078 z m -91.897,7.1 c 0.04,-0.918 1.571,-2.25 4.593,-3.995 -3.012,0.588 -6.388,0.522 -10.128,-0.197 -3.636,-0.715 -7.227,-2.096 -10.772,-4.142 -2.548,-1.472 -4.526,-3.112 -5.934,-4.922 -1.359,-1.837 -1.92,-3.656 -1.681,-5.457 0.342,-1.797 1.641,-3.346 3.895,-4.648 3.886,-2.243 8.228,-3.087 13.028,-2.532 4.799,0.555 10.518,2.306 17.158,5.253 3.644,1.605 6.438,2.775 8.38,3.509 1.99,0.706 3.533,1.126 4.63,1.26 1.096,0.135 2.004,-0.005 2.724,-0.421 0.959,-0.554 1.208,-1.241 0.746,-2.062 -0.414,-0.848 -1.341,-1.688 -2.781,-2.52 -3.158,-1.823 -6.726,-2.193 -10.705,-1.111 l -14.957,-9.882 c 4.979,-1.723 7.111,-2.876 16.689,-1 9.578,1.875 28.852,12.815 31.109,18.21 2.257,5.394 -0.035,6.544 -4.496,9.119 l -18.781,10.844 c -1.967,1.135 -3.398,2.026 -4.295,2.671 -0.793,0.65 -1.229,1.285 -1.306,1.905 z m 16.25,-10.725 c -1.277,-0.35 -3.782,-1.27 -7.515,-2.761 -4.28,-1.75 -7.595,-1.947 -9.946,-0.59 -1.103,0.637 -1.575,1.389 -1.416,2.257 0.159,0.867 0.904,1.685 2.233,2.452 1.717,0.992 3.876,1.601 6.474,1.827 2.703,0.231 5.133,-0.277 7.292,-1.523 z m -45.206,-44.131 c 3.326,-0.129 6.645,0.098 9.956,0.68 3.415,0.587 6.84,1.872 10.274,3.855 4.653,2.686 7.11,5.489 7.37,8.409 0.316,2.952 -1.901,5.799 -6.65,8.541 l -24.897,14.375 -17.117,-9.883 21.659,-12.505 c 2.111,-1.218 3.124,-2.379 3.038,-3.48 0.018,-1.098 -0.887,-2.175 -2.715,-3.23 -1.994,-1.151 -4.2,-1.733 -6.618,-1.744 -2.37,-0.039 -4.755,0.634 -7.153,2.019 l -20.508,11.841 -17.117,-9.883 52.098,-30.078 17.116,9.882 -19.069,11.009 z m -44.949,0.065 -7.493,5.849 c -3.848,-1.369 -8.401,-3.047 -12.032,-4.999 -2.753,-1.481 -5.593,-3.082 -7.22,-5 -1.232,-1.453 -2.163,-3.132 -1.653,-4.61 0.511,-1.478 2.294,-3.051 5.269,-4.769 l 18.709,-10.801 -4.216,-2.435 8.922,-5.151 4.216,2.434 6.355,-3.668 23.179,4.766 -14.036,7.85 7.047,4.068 -8.923,5.152 -7.047,-4.069 -15.354,8.929 c -3.933,2.27 -5.569,3.204 1.712,5.626 1.072,0.357 2.565,0.828 2.565,0.828 z"
         style="fill:#3c4841;fill-opacity:1;stroke:#d3c6aa;stroke-width:1.05833px;stroke-opacity:1"
         id="path5219" /><path
         d="m 435.15239,347.6792 -52.097,30.078 -17.117,-9.882 52.098,-30.078 z m -22.662,-13.084 -52.097,30.078 -17.117,-9.882 52.098,-30.078 z m -91.897,7.1 c 0.04,-0.919 1.571,-2.25 4.593,-3.995 -3.012,0.587 -6.388,0.522 -10.128,-0.197 -3.636,-0.715 -7.227,-2.096 -10.772,-4.143 -2.548,-1.471 -4.526,-3.111 -5.934,-4.921 -1.359,-1.837 -1.92,-3.657 -1.681,-5.458 0.342,-1.796 1.641,-3.345 3.895,-4.647 3.886,-2.243 8.228,-3.088 13.028,-2.532 4.799,0.555 10.518,2.306 17.158,5.253 3.644,1.605 6.438,2.775 8.38,3.508 1.99,0.706 3.533,1.126 4.63,1.261 1.096,0.135 2.004,-0.005 2.724,-0.421 0.959,-0.554 1.208,-1.242 0.746,-2.062 -0.414,-0.849 -1.341,-1.689 -2.781,-2.52 -3.158,-1.823 -6.726,-2.194 -10.705,-1.112 l -14.957,-9.881 c 4.979,-1.724 7.111,-2.876 16.689,-1.001 9.578,1.876 28.852,12.815 31.109,18.21 2.257,5.395 -0.035,6.544 -4.496,9.12 l -18.781,10.843 c -1.967,1.136 -3.398,2.027 -4.295,2.672 -0.793,0.65 -1.229,1.285 -1.306,1.905 z m 16.25,-10.725 c -1.277,-0.35 -3.782,-1.27 -7.515,-2.761 -4.28,-1.751 -7.595,-1.947 -9.946,-0.59 -1.103,0.637 -1.575,1.389 -1.416,2.256 0.159,0.868 0.904,1.685 2.233,2.453 1.717,0.991 3.876,1.6 6.474,1.827 2.703,0.231 5.133,-0.277 7.292,-1.524 z m -45.206,-44.131 c 3.326,-0.129 6.645,0.097 9.956,0.68 3.415,0.587 6.84,1.872 10.274,3.854 4.653,2.687 7.11,5.49 7.37,8.41 0.316,2.952 -1.901,5.799 -6.65,8.541 l -24.897,14.374 -17.117,-9.882 21.659,-12.505 c 2.111,-1.219 3.124,-2.379 3.038,-3.481 0.018,-1.097 -0.887,-2.174 -2.715,-3.229 -1.994,-1.151 -4.2,-1.733 -6.618,-1.744 -2.37,-0.039 -4.755,0.634 -7.153,2.019 l -20.508,11.84 -17.117,-9.882 52.098,-30.078 17.116,9.882 -19.069,11.009 z m -44.949,0.065 -7.493,5.849 c -3.848,-1.369 -8.401,-3.047 -12.032,-5 -2.753,-1.48 -5.593,-3.081 -7.22,-4.999 -1.232,-1.453 -2.163,-3.132 -1.653,-4.61 0.511,-1.478 2.294,-3.052 5.269,-4.769 l 18.709,-10.802 -4.216,-2.434 8.922,-5.151 4.216,2.434 6.355,-3.669 23.179,4.767 -14.036,7.849 7.047,4.069 -8.923,5.151 -7.047,-4.068 -15.354,8.929 c -3.933,2.27 -5.569,3.204 1.712,5.626 1.072,0.357 2.565,0.828 2.565,0.828 z"
         style="fill:#4f5b58;fill-opacity:1;stroke:#d3c6aa;stroke-width:1.05833px;stroke-opacity:1"
         id="path5221" /><path
         d="m 435.15239,340.9992 -52.097,30.078 -17.117,-9.882 52.098,-30.078 z m -22.662,-13.084 -52.097,30.078 -17.117,-9.882 52.098,-30.078 z m -91.897,7.1 c 0.04,-0.919 1.571,-2.25 4.593,-3.995 -3.012,0.587 -6.388,0.521 -10.128,-0.198 -3.636,-0.714 -7.227,-2.095 -10.772,-4.142 -2.548,-1.471 -4.526,-3.111 -5.934,-4.921 -1.359,-1.838 -1.92,-3.657 -1.681,-5.458 0.342,-1.796 1.641,-3.346 3.895,-4.647 3.886,-2.244 8.228,-3.088 13.028,-2.533 4.799,0.555 10.518,2.307 17.158,5.253 3.644,1.606 6.438,2.776 8.38,3.509 1.99,0.706 3.533,1.126 4.63,1.261 1.096,0.134 2.004,-0.005 2.724,-0.422 0.959,-0.554 1.208,-1.241 0.746,-2.062 -0.414,-0.848 -1.341,-1.688 -2.781,-2.519 -3.158,-1.823 -6.726,-2.194 -10.705,-1.112 l -14.957,-9.882 c 4.979,-1.723 7.111,-2.876 16.689,-1 9.578,1.876 28.852,12.815 31.109,18.21 2.257,5.395 -0.035,6.544 -4.496,9.12 l -18.781,10.843 c -1.967,1.136 -3.398,2.026 -4.295,2.672 -0.793,0.65 -1.229,1.285 -1.306,1.905 z m 16.25,-10.726 c -1.277,-0.349 -3.782,-1.27 -7.515,-2.76 -4.28,-1.751 -7.595,-1.948 -9.946,-0.591 -1.103,0.637 -1.575,1.39 -1.416,2.257 0.159,0.868 0.904,1.685 2.233,2.453 1.717,0.991 3.876,1.6 6.474,1.827 2.703,0.23 5.133,-0.277 7.292,-1.524 z m -45.206,-44.13 c 3.326,-0.129 6.645,0.097 9.956,0.68 3.415,0.587 6.84,1.871 10.274,3.854 4.653,2.687 7.11,5.49 7.37,8.41 0.316,2.952 -1.901,5.799 -6.65,8.541 l -24.897,14.374 -17.117,-9.882 21.659,-12.505 c 2.111,-1.219 3.124,-2.379 3.038,-3.481 0.018,-1.098 -0.887,-2.174 -2.715,-3.229 -1.994,-1.152 -4.2,-1.733 -6.618,-1.744 -2.37,-0.039 -4.755,0.634 -7.153,2.019 l -20.508,11.84 -17.117,-9.882 52.098,-30.079 17.116,9.883 -19.069,11.009 z m -44.949,0.065 -7.493,5.848 c -3.848,-1.369 -8.401,-3.046 -12.032,-4.999 -2.753,-1.48 -5.593,-3.081 -7.22,-4.999 -1.232,-1.453 -2.163,-3.132 -1.653,-4.61 0.511,-1.478 2.294,-3.052 5.269,-4.769 l 18.709,-10.802 -4.216,-2.434 8.922,-5.152 4.216,2.435 6.355,-3.669 23.179,4.767 -14.036,7.849 7.047,4.069 -8.923,5.151 -7.047,-4.068 -15.354,8.928 c -3.933,2.271 -5.569,3.204 1.712,5.627 1.072,0.356 2.565,0.828 2.565,0.828 z"
         style="fill:#384b55;fill-opacity:1;stroke:#d3c6aa;stroke-width:1.05833px;stroke-opacity:1"
         id="path5223" /><path
         d="m 435.15239,334.3192 -52.097,30.078 -17.117,-9.882 52.098,-30.079 z m -22.662,-13.084 -52.097,30.078 -17.117,-9.882 52.098,-30.079 z m -91.897,7.1 c 0.04,-0.919 1.571,-2.251 4.593,-3.996 -3.012,0.588 -6.388,0.522 -10.128,-0.197 -3.636,-0.715 -7.227,-2.095 -10.772,-4.142 -2.548,-1.471 -4.526,-3.112 -5.934,-4.921 -1.359,-1.838 -1.92,-3.657 -1.681,-5.458 0.342,-1.797 1.641,-3.346 3.895,-4.648 3.886,-2.243 8.228,-3.087 13.028,-2.532 4.799,0.555 10.518,2.306 17.158,5.253 3.644,1.606 6.438,2.775 8.38,3.509 1.99,0.706 3.533,1.126 4.63,1.261 1.096,0.134 2.004,-0.005 2.724,-0.422 0.959,-0.554 1.208,-1.241 0.746,-2.062 -0.414,-0.848 -1.341,-1.688 -2.781,-2.52 -3.158,-1.822 -6.726,-2.193 -10.705,-1.111 l -14.957,-9.882 c 4.979,-1.723 7.111,-2.876 16.689,-1 9.578,1.876 28.852,12.815 31.109,18.21 2.257,5.395 -0.035,6.544 -4.496,9.12 l -18.781,10.843 c -1.967,1.136 -3.398,2.026 -4.295,2.672 -0.793,0.65 -1.229,1.285 -1.306,1.905 z m 16.25,-10.726 c -1.277,-0.35 -3.782,-1.27 -7.515,-2.76 -4.28,-1.751 -7.595,-1.948 -9.946,-0.591 -1.103,0.637 -1.575,1.389 -1.416,2.257 0.159,0.867 0.904,1.685 2.233,2.452 1.717,0.992 3.876,1.601 6.474,1.827 2.703,0.231 5.133,-0.277 7.292,-1.523 z m -45.206,-44.13 c 3.326,-0.13 6.645,0.097 9.956,0.68 3.415,0.586 6.84,1.871 10.274,3.854 4.653,2.686 7.11,5.49 7.37,8.41 0.316,2.951 -1.901,5.798 -6.65,8.54 l -24.897,14.375 -17.117,-9.882 21.659,-12.505 c 2.111,-1.219 3.124,-2.379 3.038,-3.481 0.018,-1.098 -0.887,-2.174 -2.715,-3.23 -1.994,-1.151 -4.2,-1.732 -6.618,-1.743 -2.37,-0.039 -4.755,0.634 -7.153,2.019 l -20.508,11.84 -17.117,-9.882 52.098,-30.079 17.116,9.882 -19.069,11.01 z m -44.949,0.065 -7.493,5.848 c -3.848,-1.369 -8.401,-3.046 -12.032,-4.999 -2.753,-1.481 -5.593,-3.081 -7.22,-4.999 -1.232,-1.454 -2.163,-3.133 -1.653,-4.611 0.511,-1.478 2.294,-3.051 5.269,-4.768 l 18.709,-10.802 -4.216,-2.434 8.922,-5.152 4.216,2.434 6.355,-3.668 23.179,4.767 -14.036,7.849 7.047,4.068 -8.923,5.152 -7.047,-4.068 -15.354,8.928 c -3.933,2.271 -5.569,3.204 1.712,5.626 1.072,0.357 2.565,0.829 2.565,0.829 z"
         style="fill:#7fbbb3;fill-opacity:1;stroke:#d3c6aa;stroke-width:1.05833px;stroke-opacity:1"
         id="path5225" /><path
         d="m 435.15239,327.6382 -52.097,30.079 -17.117,-9.882 52.098,-30.079 z m -22.662,-13.084 -52.097,30.079 -17.117,-9.882 52.098,-30.079 z m -91.897,7.1 c 0.04,-0.918 1.571,-2.25 4.593,-3.995 -3.012,0.588 -6.388,0.522 -10.128,-0.197 -3.636,-0.715 -7.227,-2.096 -10.772,-4.142 -2.548,-1.471 -4.526,-3.112 -5.934,-4.922 -1.359,-1.837 -1.92,-3.656 -1.681,-5.457 0.342,-1.797 1.641,-3.346 3.895,-4.648 3.886,-2.243 8.228,-3.087 13.028,-2.532 4.799,0.555 10.518,2.306 17.158,5.253 3.644,1.606 6.438,2.775 8.38,3.509 1.99,0.706 3.533,1.126 4.63,1.26 1.096,0.135 2.004,-0.005 2.724,-0.421 0.959,-0.554 1.208,-1.241 0.746,-2.062 -0.414,-0.848 -1.341,-1.688 -2.781,-2.52 -3.158,-1.823 -6.726,-2.193 -10.705,-1.111 l -14.957,-9.882 c 4.979,-1.723 7.111,-2.876 16.689,-1 9.578,1.875 28.852,12.815 31.109,18.21 2.257,5.395 -0.035,6.544 -4.496,9.12 l -18.781,10.843 c -1.967,1.135 -3.398,2.026 -4.295,2.671 -0.793,0.65 -1.229,1.285 -1.306,1.906 z m 16.25,-10.725 c -1.277,-0.35 -3.782,-1.27 -7.515,-2.761 -4.28,-1.75 -7.595,-1.947 -9.946,-0.59 -1.103,0.637 -1.575,1.389 -1.416,2.257 0.159,0.867 0.904,1.685 2.233,2.452 1.717,0.992 3.876,1.601 6.474,1.827 2.703,0.231 5.133,-0.277 7.292,-1.523 z m -45.206,-44.131 c 3.326,-0.129 6.645,0.098 9.956,0.68 3.415,0.587 6.84,1.872 10.274,3.855 4.653,2.686 7.11,5.489 7.37,8.409 0.316,2.952 -1.901,5.799 -6.65,8.541 l -24.897,14.375 -17.117,-9.883 21.659,-12.505 c 2.111,-1.218 3.124,-2.378 3.038,-3.48 0.018,-1.098 -0.887,-2.174 -2.715,-3.23 -1.994,-1.151 -4.2,-1.732 -6.618,-1.744 -2.37,-0.039 -4.755,0.634 -7.153,2.019 l -20.508,11.841 -17.117,-9.883 52.098,-30.078 17.116,9.882 -19.069,11.01 z m -44.949,0.065 -7.493,5.849 c -3.848,-1.369 -8.401,-3.047 -12.032,-4.999 -2.753,-1.481 -5.593,-3.082 -7.22,-5 -1.232,-1.453 -2.163,-3.132 -1.653,-4.61 0.511,-1.478 2.294,-3.051 5.269,-4.769 l 18.709,-10.801 -4.216,-2.434 8.922,-5.152 4.216,2.434 6.355,-3.668 23.179,4.766 -14.036,7.85 7.047,4.068 -8.923,5.152 -7.047,-4.069 -15.354,8.929 c -3.933,2.27 -5.569,3.204 1.712,5.626 1.072,0.357 2.565,0.828 2.565,0.828 z"
         style="fill:#83c092;fill-opacity:1;stroke:#d3c6aa;stroke-width:1.05833px;stroke-opacity:1"
         id="path5227" /><path
         d="m 435.15239,320.9582 -52.097,30.079 -17.117,-9.883 52.098,-30.078 z m -22.662,-13.084 -52.097,30.079 -17.117,-9.883 52.098,-30.078 z m -91.897,7.1 c 0.04,-0.918 1.571,-2.25 4.593,-3.995 -3.012,0.588 -6.388,0.522 -10.128,-0.197 -3.636,-0.715 -7.227,-2.096 -10.772,-4.143 -2.548,-1.471 -4.526,-3.111 -5.934,-4.921 -1.359,-1.837 -1.92,-3.657 -1.681,-5.457 0.342,-1.797 1.641,-3.346 3.895,-4.648 3.886,-2.243 8.228,-3.088 13.028,-2.532 4.799,0.555 10.518,2.306 17.158,5.253 3.644,1.605 6.438,2.775 8.38,3.509 1.99,0.705 3.533,1.126 4.63,1.26 1.096,0.135 2.004,-0.005 2.724,-0.421 0.959,-0.554 1.208,-1.242 0.746,-2.062 -0.414,-0.849 -1.341,-1.688 -2.781,-2.52 -3.158,-1.823 -6.726,-2.193 -10.705,-1.112 l -14.957,-9.881 c 4.979,-1.723 7.111,-2.876 16.689,-1.001 9.578,1.876 28.852,12.816 31.109,18.21 2.257,5.395 -0.035,6.545 -4.496,9.12 l -18.781,10.844 c -1.967,1.135 -3.398,2.026 -4.295,2.671 -0.793,0.65 -1.229,1.285 -1.306,1.905 z m 16.25,-10.725 c -1.277,-0.35 -3.782,-1.27 -7.515,-2.761 -4.28,-1.751 -7.595,-1.947 -9.946,-0.59 -1.103,0.637 -1.575,1.389 -1.416,2.257 0.159,0.867 0.904,1.684 2.233,2.452 1.717,0.991 3.876,1.6 6.474,1.827 2.703,0.231 5.133,-0.277 7.292,-1.524 z m -45.206,-44.131 c 3.326,-0.129 6.645,0.098 9.956,0.68 3.415,0.587 6.84,1.872 10.274,3.855 4.653,2.686 7.11,5.489 7.37,8.409 0.316,2.952 -1.901,5.799 -6.65,8.541 l -24.897,14.374 -17.117,-9.882 21.659,-12.505 c 2.111,-1.218 3.124,-2.379 3.038,-3.481 0.018,-1.097 -0.887,-2.174 -2.715,-3.229 -1.994,-1.151 -4.2,-1.733 -6.618,-1.744 -2.37,-0.039 -4.755,0.634 -7.153,2.019 l -20.508,11.84 -17.117,-9.882 52.098,-30.078 17.116,9.882 -19.069,11.009 z m -44.949,0.065 -7.493,5.849 c -3.848,-1.369 -8.401,-3.047 -12.032,-4.999 -2.753,-1.481 -5.593,-3.082 -7.22,-5 -1.232,-1.453 -2.163,-3.132 -1.653,-4.61 0.511,-1.478 2.294,-3.052 5.269,-4.769 l 18.709,-10.801 -4.216,-2.435 8.922,-5.151 4.216,2.434 6.355,-3.669 23.179,4.767 -14.036,7.85 7.047,4.068 -8.923,5.152 -7.047,-4.069 -15.354,8.929 c -3.933,2.27 -5.569,3.204 1.712,5.626 1.072,0.357 2.565,0.828 2.565,0.828 z"
         style="fill:#a7c080;fill-opacity:1;stroke:#d3c6aa;stroke-width:1.05833px;stroke-opacity:1"
         id="path5229" /><path
         d="m 435.15239,314.2782 -52.097,30.078 -17.117,-9.882 52.098,-30.078 z m -22.662,-13.084 -52.097,30.078 -17.117,-9.882 52.098,-30.078 z m -91.897,7.1 c 0.04,-0.919 1.571,-2.25 4.593,-3.995 -3.012,0.587 -6.388,0.522 -10.128,-0.197 -3.636,-0.715 -7.227,-2.096 -10.772,-4.143 -2.548,-1.471 -4.526,-3.111 -5.934,-4.921 -1.359,-1.838 -1.92,-3.657 -1.681,-5.458 0.342,-1.796 1.641,-3.345 3.895,-4.647 3.886,-2.244 8.228,-3.088 13.028,-2.533 4.799,0.556 10.518,2.307 17.158,5.253 3.644,1.606 6.438,2.776 8.38,3.509 1.99,0.706 3.533,1.126 4.63,1.261 1.096,0.134 2.004,-0.005 2.724,-0.422 0.959,-0.553 1.208,-1.241 0.746,-2.061 -0.414,-0.849 -1.341,-1.689 -2.781,-2.52 -3.158,-1.823 -6.726,-2.194 -10.705,-1.112 l -14.957,-9.882 c 4.979,-1.723 7.111,-2.876 16.689,-1 9.578,1.876 28.852,12.815 31.109,18.21 2.257,5.395 -0.035,6.544 -4.496,9.12 l -18.781,10.843 c -1.967,1.136 -3.398,2.026 -4.295,2.672 -0.793,0.65 -1.229,1.285 -1.306,1.905 z m 16.25,-10.726 c -1.277,-0.349 -3.782,-1.27 -7.515,-2.76 -4.28,-1.751 -7.595,-1.948 -9.946,-0.59 -1.103,0.637 -1.575,1.389 -1.416,2.256 0.159,0.868 0.904,1.685 2.233,2.453 1.717,0.991 3.876,1.6 6.474,1.827 2.703,0.23 5.133,-0.277 7.292,-1.524 z m -45.206,-44.13 c 3.326,-0.129 6.645,0.097 9.956,0.68 3.415,0.587 6.84,1.872 10.274,3.854 4.653,2.687 7.11,5.49 7.37,8.41 0.316,2.952 -1.901,5.799 -6.65,8.541 l -24.897,14.374 -17.117,-9.882 21.659,-12.505 c 2.111,-1.219 3.124,-2.379 3.038,-3.481 0.018,-1.097 -0.887,-2.174 -2.715,-3.229 -1.994,-1.152 -4.2,-1.733 -6.618,-1.744 -2.37,-0.039 -4.755,0.634 -7.153,2.019 l -20.508,11.84 -17.117,-9.882 52.098,-30.078 17.116,9.882 -19.069,11.009 z m -44.949,0.065 -7.493,5.849 c -3.848,-1.37 -8.401,-3.047 -12.032,-5 -2.753,-1.48 -5.593,-3.081 -7.22,-4.999 -1.232,-1.453 -2.163,-3.132 -1.653,-4.61 0.511,-1.478 2.294,-3.052 5.269,-4.769 l 18.709,-10.802 -4.216,-2.434 8.922,-5.151 4.216,2.434 6.355,-3.669 23.179,4.767 -14.036,7.849 7.047,4.069 -8.923,5.151 -7.047,-4.068 -15.354,8.928 c -3.933,2.271 -5.569,3.204 1.712,5.627 1.072,0.357 2.565,0.828 2.565,0.828 z"
         style="fill:#dbbc7f;fill-opacity:1;stroke:#d3c6aa;stroke-width:1.05833px;stroke-opacity:1"
         id="path5231" /><path
         d="m 435.15239,307.5982 -52.097,30.078 -17.117,-9.882 52.098,-30.078 z m -22.662,-13.084 -52.097,30.078 -17.117,-9.882 52.098,-30.079 z m -91.897,7.1 c 0.04,-0.919 1.571,-2.251 4.593,-3.995 -3.012,0.587 -6.388,0.521 -10.128,-0.198 -3.636,-0.714 -7.227,-2.095 -10.772,-4.142 -2.548,-1.471 -4.526,-3.112 -5.934,-4.921 -1.359,-1.838 -1.92,-3.657 -1.681,-5.458 0.342,-1.796 1.641,-3.346 3.895,-4.647 3.886,-2.244 8.228,-3.088 13.028,-2.533 4.799,0.555 10.518,2.306 17.158,5.253 3.644,1.606 6.438,2.776 8.38,3.509 1.99,0.706 3.533,1.126 4.63,1.261 1.096,0.134 2.004,-0.005 2.724,-0.422 0.959,-0.554 1.208,-1.241 0.746,-2.062 -0.414,-0.848 -1.341,-1.688 -2.781,-2.519 -3.158,-1.823 -6.726,-2.194 -10.705,-1.112 l -14.957,-9.882 c 4.979,-1.723 7.111,-2.876 16.689,-1 9.578,1.876 28.852,12.815 31.109,18.21 2.257,5.395 -0.035,6.544 -4.496,9.12 l -18.781,10.843 c -1.967,1.136 -3.398,2.026 -4.295,2.672 -0.793,0.65 -1.229,1.285 -1.306,1.905 z m 16.25,-10.726 c -1.277,-0.35 -3.782,-1.27 -7.515,-2.76 -4.28,-1.751 -7.595,-1.948 -9.946,-0.591 -1.103,0.637 -1.575,1.39 -1.416,2.257 0.159,0.868 0.904,1.685 2.233,2.453 1.717,0.991 3.876,1.6 6.474,1.826 2.703,0.231 5.133,-0.277 7.292,-1.523 z m -45.206,-44.13 c 3.326,-0.13 6.645,0.097 9.956,0.68 3.415,0.586 6.84,1.871 10.274,3.854 4.653,2.687 7.11,5.49 7.37,8.41 0.316,2.952 -1.901,5.798 -6.65,8.54 l -24.897,14.375 -17.117,-9.882 21.659,-12.505 c 2.111,-1.219 3.124,-2.379 3.038,-3.481 0.018,-1.098 -0.887,-2.174 -2.715,-3.23 -1.994,-1.151 -4.2,-1.732 -6.618,-1.743 -2.37,-0.039 -4.755,0.634 -7.153,2.019 l -20.508,11.84 -17.117,-9.882 52.098,-30.079 17.116,9.883 -19.069,11.009 z m -44.949,0.065 -7.493,5.848 c -3.848,-1.369 -8.401,-3.046 -12.032,-4.999 -2.753,-1.481 -5.593,-3.081 -7.22,-4.999 -1.232,-1.454 -2.163,-3.133 -1.653,-4.611 0.511,-1.478 2.294,-3.051 5.269,-4.768 l 18.709,-10.802 -4.216,-2.434 8.922,-5.152 4.216,2.435 6.355,-3.669 23.179,4.767 -14.036,7.849 7.047,4.069 -8.923,5.151 -7.047,-4.068 -15.354,8.928 c -3.933,2.271 -5.569,3.204 1.712,5.626 1.072,0.357 2.565,0.829 2.565,0.829 z"
         style="fill:#e69876;fill-opacity:1;stroke:#d3c6aa;stroke-width:1.05833px;stroke-opacity:1"
         id="path5233" /><path
         d="m 435.15239,300.9172 -52.097,30.079 -17.117,-9.882 52.098,-30.079 z m -22.662,-13.084 -52.097,30.079 -17.117,-9.882 52.098,-30.079 z m -91.897,7.1 c 0.04,-0.918 1.571,-2.25 4.593,-3.995 -3.012,0.588 -6.388,0.522 -10.128,-0.197 -3.636,-0.715 -7.227,-2.095 -10.772,-4.142 -2.548,-1.471 -4.526,-3.112 -5.934,-4.922 -1.359,-1.837 -1.92,-3.656 -1.681,-5.457 0.342,-1.797 1.641,-3.346 3.895,-4.648 3.886,-2.243 8.228,-3.087 13.028,-2.532 4.799,0.555 10.518,2.306 17.158,5.253 3.644,1.606 6.438,2.775 8.38,3.509 1.99,0.706 3.533,1.126 4.63,1.26 1.096,0.135 2.004,-0.005 2.724,-0.421 0.959,-0.554 1.208,-1.241 0.746,-2.062 -0.414,-0.848 -1.341,-1.688 -2.781,-2.52 -3.158,-1.823 -6.726,-2.193 -10.705,-1.111 l -14.957,-9.882 c 4.979,-1.723 7.111,-2.876 16.689,-1 9.578,1.876 28.852,12.815 31.109,18.21 2.257,5.395 -0.035,6.544 -4.496,9.12 l -18.781,10.843 c -1.967,1.135 -3.398,2.026 -4.295,2.672 -0.793,0.649 -1.229,1.284 -1.306,1.905 z m 16.25,-10.725 c -1.277,-0.35 -3.782,-1.27 -7.515,-2.761 -4.28,-1.75 -7.595,-1.947 -9.946,-0.59 -1.103,0.637 -1.575,1.389 -1.416,2.257 0.159,0.867 0.904,1.685 2.233,2.452 1.717,0.992 3.876,1.601 6.474,1.827 2.703,0.231 5.133,-0.277 7.292,-1.523 z m -45.206,-44.13 c 3.326,-0.13 6.645,0.097 9.956,0.679 3.415,0.587 6.84,1.872 10.274,3.855 4.653,2.686 7.11,5.49 7.37,8.409 0.316,2.952 -1.901,5.799 -6.65,8.541 l -24.897,14.375 -17.117,-9.882 21.659,-12.505 c 2.111,-1.219 3.124,-2.379 3.038,-3.481 0.018,-1.098 -0.887,-2.174 -2.715,-3.23 -1.994,-1.151 -4.2,-1.732 -6.618,-1.743 -2.37,-0.039 -4.755,0.634 -7.153,2.018 l -20.508,11.841 -17.117,-9.882 52.098,-30.079 17.116,9.882 -19.069,11.01 z m -44.949,0.064 -7.493,5.849 c -3.848,-1.369 -8.401,-3.047 -12.032,-4.999 -2.753,-1.481 -5.593,-3.081 -7.22,-4.999 -1.232,-1.454 -2.163,-3.133 -1.653,-4.611 0.511,-1.478 2.294,-3.051 5.269,-4.768 l 18.709,-10.802 -4.216,-2.434 8.922,-5.152 4.216,2.434 6.355,-3.668 23.179,4.766 -14.036,7.85 7.047,4.068 -8.923,5.152 -7.047,-4.069 -15.354,8.929 c -3.933,2.271 -5.569,3.204 1.712,5.626 1.072,0.357 2.565,0.828 2.565,0.828 z"
         style="fill:#e67e80;fill-opacity:1;stroke:#d3c6aa;stroke-width:1.05833px;stroke-opacity:1"
         id="path5235" /><path
         d="m 435.15239,294.2372 -52.097,30.079 -17.117,-9.883 52.098,-30.078 z m -22.662,-13.084 -52.097,30.079 -17.117,-9.883 52.098,-30.078 z m -91.897,7.1 c 0.04,-0.918 1.571,-2.25 4.593,-3.995 -3.012,0.588 -6.388,0.522 -10.128,-0.197 -3.636,-0.715 -7.227,-2.096 -10.772,-4.142 -2.548,-1.472 -4.526,-3.112 -5.934,-4.922 -1.359,-1.837 -1.92,-3.656 -1.681,-5.457 0.342,-1.797 1.641,-3.346 3.895,-4.648 3.886,-2.243 8.228,-3.087 13.028,-2.532 4.799,0.555 10.518,2.306 17.158,5.253 3.644,1.605 6.438,2.775 8.38,3.509 1.99,0.706 3.533,1.126 4.63,1.26 1.096,0.135 2.004,-0.005 2.724,-0.421 0.959,-0.554 1.208,-1.241 0.746,-2.062 -0.414,-0.848 -1.341,-1.688 -2.781,-2.52 -3.158,-1.823 -6.726,-2.193 -10.705,-1.111 l -14.957,-9.882 c 4.979,-1.723 7.111,-2.876 16.689,-1 9.578,1.875 28.852,12.815 31.109,18.21 2.257,5.394 -0.035,6.544 -4.496,9.119 l -18.781,10.844 c -1.967,1.135 -3.398,2.026 -4.295,2.671 -0.793,0.65 -1.229,1.285 -1.306,1.905 z m 16.25,-10.725 c -1.277,-0.35 -3.782,-1.27 -7.515,-2.761 -4.28,-1.75 -7.595,-1.947 -9.946,-0.59 -1.103,0.637 -1.575,1.389 -1.416,2.257 0.159,0.867 0.904,1.685 2.233,2.452 1.717,0.992 3.876,1.601 6.474,1.827 2.703,0.231 5.133,-0.277 7.292,-1.523 z m -45.206,-44.131 c 3.326,-0.129 6.645,0.098 9.956,0.68 3.415,0.587 6.84,1.872 10.274,3.855 4.653,2.686 7.11,5.489 7.37,8.409 0.316,2.952 -1.901,5.799 -6.65,8.541 l -24.897,14.375 -17.117,-9.883 21.659,-12.505 c 2.111,-1.218 3.124,-2.379 3.038,-3.48 0.018,-1.098 -0.887,-2.175 -2.715,-3.23 -1.994,-1.151 -4.2,-1.733 -6.618,-1.744 -2.37,-0.039 -4.755,0.634 -7.153,2.019 l -20.508,11.84 -17.117,-9.882 52.098,-30.078 17.116,9.882 -19.069,11.009 z m -44.949,0.065 -7.493,5.849 c -3.848,-1.369 -8.401,-3.047 -12.032,-4.999 -2.753,-1.481 -5.593,-3.082 -7.22,-5 -1.232,-1.453 -2.163,-3.132 -1.653,-4.61 0.511,-1.478 2.294,-3.052 5.269,-4.769 l 18.709,-10.801 -4.216,-2.435 8.922,-5.151 4.216,2.434 6.355,-3.668 23.179,4.766 -14.036,7.85 7.047,4.068 -8.923,5.152 -7.047,-4.069 -15.354,8.929 c -3.933,2.27 -5.569,3.204 1.712,5.626 1.072,0.357 2.565,0.828 2.565,0.828 z"
         style="fill:#d699b6;fill-opacity:1;stroke:#d3c6aa;stroke-width:1.05833px;stroke-opacity:1"
         id="path5237" /><path
         d="m 435.15239,287.5572 -52.097,30.078 -17.117,-9.882 52.098,-30.078 z m -22.662,-13.084 -52.097,30.078 -17.117,-9.882 52.098,-30.078 z m -91.897,7.1 c 0.04,-0.919 1.571,-2.25 4.593,-3.995 -3.012,0.587 -6.388,0.522 -10.128,-0.197 -3.636,-0.715 -7.227,-2.096 -10.772,-4.143 -2.548,-1.471 -4.526,-3.111 -5.934,-4.921 -1.359,-1.837 -1.92,-3.657 -1.681,-5.458 0.342,-1.796 1.641,-3.345 3.895,-4.647 3.886,-2.243 8.228,-3.088 13.028,-2.532 4.799,0.555 10.518,2.306 17.158,5.253 3.644,1.605 6.438,2.775 8.38,3.508 1.99,0.706 3.533,1.126 4.63,1.261 1.096,0.135 2.004,-0.005 2.724,-0.421 0.959,-0.554 1.208,-1.242 0.746,-2.062 -0.414,-0.849 -1.341,-1.689 -2.781,-2.52 -3.158,-1.823 -6.726,-2.194 -10.705,-1.112 l -14.957,-9.881 c 4.979,-1.724 7.111,-2.876 16.689,-1.001 9.578,1.876 28.852,12.815 31.109,18.21 2.257,5.395 -0.035,6.544 -4.496,9.12 l -18.781,10.843 c -1.967,1.136 -3.398,2.027 -4.295,2.672 -0.793,0.65 -1.229,1.285 -1.306,1.905 z m 16.25,-10.725 c -1.277,-0.35 -3.782,-1.27 -7.515,-2.761 -4.28,-1.751 -7.595,-1.947 -9.946,-0.59 -1.103,0.637 -1.575,1.389 -1.416,2.256 0.159,0.868 0.904,1.685 2.233,2.453 1.717,0.991 3.876,1.6 6.474,1.827 2.703,0.231 5.133,-0.277 7.292,-1.524 z m -45.206,-44.131 c 3.326,-0.129 6.645,0.097 9.956,0.68 3.415,0.587 6.84,1.872 10.274,3.854 4.653,2.687 7.11,5.49 7.37,8.41 0.316,2.952 -1.901,5.799 -6.65,8.541 l -24.897,14.374 -17.117,-9.882 21.659,-12.505 c 2.111,-1.219 3.124,-2.379 3.038,-3.481 0.018,-1.097 -0.887,-2.174 -2.715,-3.229 -1.994,-1.152 -4.2,-1.733 -6.618,-1.744 -2.37,-0.039 -4.755,0.634 -7.153,2.019 l -20.508,11.84 -17.117,-9.882 52.098,-30.078 17.116,9.882 -19.069,11.009 z m -44.949,0.065 -7.493,5.849 c -3.848,-1.369 -8.401,-3.047 -12.032,-5 -2.753,-1.48 -5.593,-3.081 -7.22,-4.999 -1.232,-1.453 -2.163,-3.132 -1.653,-4.61 0.511,-1.478 2.294,-3.052 5.269,-4.769 l 18.709,-10.802 -4.216,-2.434 8.922,-5.151 4.216,2.434 6.355,-3.669 23.179,4.767 -14.036,7.849 7.047,4.069 -8.923,5.151 -7.047,-4.068 -15.354,8.929 c -3.933,2.27 -5.569,3.204 1.712,5.626 1.072,0.357 2.565,0.828 2.565,0.828 z"
         style="fill:#1e2326;fill-opacity:1;stroke:#d3c6aa;stroke-width:1.05833px;stroke-opacity:1"
         id="path5239" /></g></g></svg>
