<?xml version="1.0" encoding="UTF-8" standalone="no"?>
<!-- Created with Inkscape (http://www.inkscape.org/) -->

<svg
   width="1366mm"
   height="768mm"
   viewBox="0 0 1366 768"
   version="1.1"
   id="svg5"
   xml:space="preserve"
   inkscape:version="1.2.2 (b0a8486, 2022-12-01)"
   sodipodi:docname="thall_green.svg"
   inkscape:export-filename="../thall_green.png"
   inkscape:export-xdpi="71.4375"
   inkscape:export-ydpi="71.4375"
   xmlns:inkscape="http://www.inkscape.org/namespaces/inkscape"
   xmlns:sodipodi="http://sodipodi.sourceforge.net/DTD/sodipodi-0.dtd"
   xmlns="http://www.w3.org/2000/svg"
   xmlns:svg="http://www.w3.org/2000/svg"><sodipodi:namedview
     id="namedview7"
     pagecolor="#ffffff"
     bordercolor="#000000"
     borderopacity="0.25"
     inkscape:showpageshadow="2"
     inkscape:pageopacity="0.0"
     inkscape:pagecheckerboard="0"
     inkscape:deskcolor="#d1d1d1"
     inkscape:document-units="mm"
     showgrid="false"
     inkscape:zoom="0.11581066"
     inkscape:cx="2145.7437"
     inkscape:cy="2098.2524"
     inkscape:window-width="1342"
     inkscape:window-height="744"
     inkscape:window-x="0"
     inkscape:window-y="0"
     inkscape:window-maximized="1"
     inkscape:current-layer="layer1" /><defs
     id="defs2" /><g
     inkscape:label="Layer 1"
     inkscape:groupmode="layer"
     id="layer1"><rect
       style="fill:#1e2326;stroke:none;stroke-width:1;stroke-dasharray:none;stroke-opacity:1"
       id="rect1291"
       width="1365.9999"
       height="768"
       x="0"
       y="0" /><text
       xml:space="preserve"
       style="font-style:normal;font-variant:normal;font-weight:normal;font-stretch:normal;font-size:11.2889px;font-family:'Sequel Sans';-inkscape-font-specification:'Sequel Sans,  weight=371';font-variant-ligatures:normal;font-variant-caps:normal;font-variant-numeric:normal;font-variant-east-asian:normal;fill:#1e2326;stroke:#d3c6aa;stroke-width:1;stroke-dasharray:none;stroke-opacity:1"
       x="105.97225"
       y="65.924744"
       id="text1184"><tspan
         sodipodi:role="line"
         id="tspan1182"
         style="stroke-width:1;stroke:#d3c6aa;stroke-opacity:1"
         x="105.97225"
         y="65.924744" /></text><g
       aria-label="t h a l l"
       transform="matrix(0.5913537,0,0,0.56662735,283.4953,161.71833)"
       id="text970"
       style="font-size:133.851px;font-family:'Sequel Sans';-inkscape-font-specification:'Sequel Sans,  weight=408';letter-spacing:-12.7662px;fill:#a7c080;fill-opacity:1;stroke:#a7c080;stroke-width:6.45796;stroke-opacity:1"><path
         d="m 591.60526,430.43652 c 2.32009,0 4.30778,0.27269 7.51856,-0.86847 l -0.24331,9.18434 c -2.76589,1.1142 -5.62442,1.45525 -9.28301,1.45525 -4.37247,0 -7.80798,-0.44617 -10.30653,-1.33851 -2.49855,-0.89234 -4.37247,-2.45393 -5.62174,-4.68478 -1.16005,-2.23085 -1.74007,-5.39866 -1.74007,-9.50342 v -46.4463 h -8.0159 v -8.70031 h 8.0159 v -14.14639 l 11.24349,-6.06511 v 20.2115 h 16.19597 v 8.70031 h -16.19597 v 43.63543 c 0,3.48013 0.58002,5.80021 1.74006,6.96025 1.24927,1.07081 3.48012,1.60621 6.69255,1.60621 z"
         style="-inkscape-font-specification:'Sequel Sans,  weight=371';fill:#a7c080;fill-opacity:1;stroke:#a7c080;stroke-opacity:1"
         id="path1666"
         sodipodi:nodetypes="sccsscsccccccccccscs" /><path
         d="m 619.15176,379.57314 c 2.23085,-3.65859 4.78909,-7.73961 8.62615,-9.79199 3.92629,-2.05238 9.33986,-2.89946 14.06698,-2.4003 6.14957,0.64936 13.02453,2.25626 17.3297,6.88486 4.40172,4.7324 6.21545,10.57224 6.21545,18.69253 v 46.9817 h -13.58807 v -43.10002 c 0,-6.78179 -1.33851,-11.68966 -4.01553,-14.72361 -2.67702,-3.12319 -6.87102,-4.68478 -12.582,-4.68478 -3.21242,0 -3.99102,0.93696 -7.02498,2.81087 -2.94472,1.87391 -4.87832,4.64017 -6.75223,8.29876 -1.78468,3.65859 -2.67702,8.03106 -2.67702,13.1174 v 38.28138 h -11.24348 v -96.90812 h 11.24348 v 36.54132 z"
         style="-inkscape-font-specification:'Sequel Sans,  weight=371';fill:#a7c080;fill-opacity:1;stroke:#a7c080;stroke-opacity:1"
         id="path1668"
         sodipodi:nodetypes="ccaasccscsccscccccc" /><path
         d="m 722.71108,439.93994 q -0.66926,-1.07081 -1.20466,-3.61398 -0.53541,-2.67702 -0.66926,-6.42484 -3.74783,6.02329 -10.70808,8.83416 -6.96025,2.81087 -14.32205,2.81087 -6.15715,0 -11.37734,-2.54317 -5.08634,-2.54316 -8.16491,-7.22795 -2.94472,-4.81864 -2.94472,-10.97578 0,-10.97578 7.6295,-15.79442 7.62951,-4.95249 22.08542,-6.69255 7.22795,-0.93696 10.97578,-1.87391 3.74783,-1.07081 5.22019,-2.54317 1.47236,-1.47236 1.47236,-4.01553 0,-5.88945 -3.88168,-9.23572 -3.88168,-3.34628 -12.31429,-3.34628 -6.42485,0 -11.37733,3.07858 -4.81864,3.07857 -6.82641,10.03882 l -10.30652,-2.54317 q 2.40932,-9.63727 10.17267,-14.72361 7.89721,-5.22019 18.87299,-5.22019 13.78666,0 20.34536,5.88945 6.55869,5.88944 6.55869,15.79442 v 33.99815 q 0,6.96025 0.26771,10.30653 0.40155,3.34627 1.60621,6.02329 z m -2.00777,-37.74598 q -1.47236,1.74006 -6.15714,2.81087 -4.55094,0.93696 -12.582,2.00777 -7.0941,0.93695 -12.18044,4.14938 -4.95249,3.21242 -4.95249,9.50342 0,5.48789 3.48013,8.70031 3.61398,3.07858 9.63727,3.07858 5.35404,0 10.44038,-2.00777 5.22019,-2.00776 8.70031,-6.5587 3.61398,-4.68478 3.61398,-12.04659 z"
         style="-inkscape-font-specification:'Sequel Sans,  weight=371';fill:#a7c080;fill-opacity:1;stroke:#a7c080;stroke-opacity:1"
         id="path1670" /><path
         d="m 760.47615,343.03182 -0.12747,96.90812 h -14.53756 v -96.90812 z"
         style="-inkscape-font-specification:'Sequel Sans,  weight=371';fill:#a7c080;fill-opacity:1;stroke:#a7c080;stroke-opacity:1"
         id="path1672"
         sodipodi:nodetypes="ccccc" /><path
         d="m 787.23988,343.03182 v 96.90812 h -13.98517 v -96.90812 z"
         style="-inkscape-font-specification:'Sequel Sans,  weight=371';fill:#a7c080;fill-opacity:1;stroke:#a7c080;stroke-opacity:1"
         id="path1674"
         sodipodi:nodetypes="ccccc" /></g></g></svg>
