<?xml version="1.0" encoding="UTF-8" standalone="no"?>
<!-- Created with Inkscape (http://www.inkscape.org/) -->

<svg
   version="1.1"
   id="svg178"
   width="2560"
   height="1440"
   viewBox="0 0 2560 1440"
   sodipodi:docname="thall.svg"
   inkscape:version="1.2.2 (b0a8486, 2022-12-01)"
   xmlns:inkscape="http://www.inkscape.org/namespaces/inkscape"
   xmlns:sodipodi="http://sodipodi.sourceforge.net/DTD/sodipodi-0.dtd"
   xmlns="http://www.w3.org/2000/svg"
   xmlns:svg="http://www.w3.org/2000/svg">
  <defs
     id="defs182" />
  <sodipodi:namedview
     id="namedview180"
     pagecolor="#ffffff"
     bordercolor="#000000"
     borderopacity="0.25"
     inkscape:showpageshadow="2"
     inkscape:pageopacity="0.0"
     inkscape:pagecheckerboard="0"
     inkscape:deskcolor="#d1d1d1"
     showgrid="false"
     inkscape:zoom="0.35355339"
     inkscape:cx="694.37886"
     inkscape:cy="678.82251"
     inkscape:window-width="1342"
     inkscape:window-height="744"
     inkscape:window-x="0"
     inkscape:window-y="0"
     inkscape:window-maximized="1"
     inkscape:current-layer="g184" />
  <g
     inkscape:groupmode="layer"
     inkscape:label="Image"
     id="g184">
    <g
       aria-label="thall"
       id="text728"
       style="font-size:133.333px;font-family:'Sequel Sans';-inkscape-font-specification:'Sequel Sans,  weight=371';stroke:#ffd42a;stroke-width:4"
       transform="translate(-2.8588106,21.326451)">
      <path
         d="m 823.52257,605.32791 2.1157,16.32748 c -4.98969,1.36766 -10.9747,2.89448 -16.60075,3.12464 -4.26645,0.17454 -8.76976,0.23715 -12.74049,-1.33333 -3.00881,-1.19003 -6.08877,-3.02202 -7.73332,-5.86665 -1.64455,-2.84463 -2.39999,-7.02221 -2.39999,-12.5333 v -34.66658 h -6.76573 v -16.53329 h 6.76573 v -11.7738 l 25.22237,-13.82614 -0.35355,25.59994 h 11.30801 v 16.53329 h -11.30801 l 0.0884,28.55316 c 0,7.28685 -0.0155,10.30065 9.19229,7.44235 1.35667,-0.42114 3.20935,-1.04777 3.20935,-1.04777 z"
         style="font-weight:bold;stroke:none"
         id="path1644"
         sodipodi:nodetypes="ccaazscccccccccccscc" />
      <path
         d="m 859.49677,563.58019 q 3.73333,-4.93333 8.93331,-8.13332 5.33332,-3.33332 13.59997,-3.33332 11.19997,0 17.59995,6.66665 6.53332,6.66665 6.53332,19.86661 v 46.13322 h -27.4666 V 584.6468 q 0,-5.86665 -2.39999,-8.39998 -2.26666,-2.66666 -6.66665,-2.66666 -4.79999,0 -7.73331,3.33332 -2.93333,3.2 -2.93333,9.86665 v 37.9999 h -27.4666 v -96.53309 h 27.4666 v 35.33325 z"
         style="font-weight:bold;stroke:none"
         id="path1646" />
      <path
         d="m 958.96295,624.78003 c -1.24444,-1.51111 -1.86666,-5.06665 -1.86666,-10.66664 -1.6,3.73333 -4.39999,6.75554 -8.39998,9.06664 -3.9111,2.22222 -8.71109,3.33333 -14.39997,3.33333 -4.08887,0 -7.95553,-0.8 -11.59997,-2.4 -3.64443,-1.68888 -6.6222,-4.08887 -8.93331,-7.19998 -2.22221,-3.19999 -3.33332,-6.88887 -3.33332,-11.06664 0,-7.19998 2.3111,-12.57774 6.93331,-16.13329 4.62221,-3.55555 11.64442,-6.04443 21.06662,-7.46665 5.15554,-0.79999 9.0222,-1.5111 11.59997,-2.13332 2.57777,-0.71111 4.39998,-1.46667 5.46665,-2.26666 1.06667,-0.8 1.6,-1.86667 1.6,-3.2 0,-1.77777 -0.75556,-3.1111 -2.26667,-3.99999 -1.51111,-0.97777 -3.42221,-1.46666 -5.73331,-1.46666 -5.06665,0 -8.44442,2.7111 -10.13331,8.13331 l -25.73327,-1.99999 c 1.6,-7.37776 1.7085,-11.20311 11.99997,-17.06662 10.29147,-5.86351 40.95818,-6.16592 50.26654,0.39999 9.30836,6.56591 9.06664,10.53331 9.06664,18.79996 v 34.79991 c 0,3.64443 0.0889,6.39998 0.26667,8.26664 0.26667,1.77777 0.8,3.19999 1.59999,4.26666 z m -1.86666,-32.26658 c -1.51111,0.62222 -4.8,1.46666 -9.86665,2.53332 -5.86665,1.15555 -8.79997,3.9111 -8.79997,8.26665 0,2.04444 0.66666,3.68888 1.99999,4.93332 1.33333,1.24444 3.06666,1.86666 5.19999,1.86666 2.75555,0 5.33332,-1.02222 7.73331,-3.06666 2.48889,-2.13333 3.73333,-5.19999 3.73333,-9.19998 z"
         style="font-weight:bold;stroke:none"
         id="path1648"
         sodipodi:nodetypes="cccsccssccsscscczzsscccccssscsc" />
      <path
         d="m 1022.8292,528.24694 v 96.53309 h -27.46659 v -96.53309 z"
         style="font-weight:bold;stroke:none"
         id="path1650"
         sodipodi:nodetypes="ccccc" />
      <path
         d="m 1059.195,528.24694 v 96.53309 h -27.4666 v -96.53309 z"
         style="font-weight:bold;stroke:none"
         id="path1652"
         sodipodi:nodetypes="ccccc" />
    </g>
    <text
       xml:space="preserve"
       style="font-size:133.333px;font-family:'Sequel Sans';-inkscape-font-specification:'Sequel Sans,  weight=371';fill:#ffcc00;stroke:none;stroke-width:4;stroke-dasharray:none"
       x="964.26044"
       y="460.85477"
       id="text1386"><tspan
         sodipodi:role="line"
         id="tspan1384"></tspan></text>
  </g>
</svg>
